<?xml version="1.0" encoding="utf-8"?>
<!DOCTYPE svg PUBLIC "-//W3C//DTD SVG 1.0//EN" "http://www.w3.org/TR/2001/REC-SVG-20010904/DTD/svg10.dtd">
<svg version="1.0" xmlns="http://www.w3.org/2000/svg" width="400px" height="684px" viewBox="0 0 400 684" preserveAspectRatio="xMidYMid meet">
 <g fill="#21344c">
  <path d="M277.5 676 c-5.5 -0.3 -10.8 -0.9 -11.7 -1.4 -2.3 -1.1 -5.8 -6.8 -5.8 -9.4 0 -1.5 -1.2 -2.8 -4 -4.2 -6.1 -3.1 -9.4 -8.8 -9.8 -17.3 -0.4 -6.4 -0.7 -7.3 -3.5 -9.6 -5.3 -4.4 -5.7 -6.8 -5.7 -32.1 0 -23 0 -23.1 -2.1 -22.5 -16.2 5.2 -42.5 6 -60.4 2 -6 -1.4 -11.1 -2.5 -11.2 -2.5 -0.2 0 -0.3 10.6 -0.3 23.6 0 26 -0.5 28.5 -6.1 32.5 -2.6 1.9 -2.9 2.6 -2.9 8 0 8.7 -4.5 16.3 -10.8 18.4 -1 0.2 -2.5 2.8 -3.5 5.5 -3.1 8.7 -4.1 9 -31.9 9 l-23.7 0 -3.6 -3.1 c-2.5 -2.2 -3.7 -4.3 -4.1 -7 -0.4 -2.1 -1.2 -3.9 -1.8 -3.9 -1.9 0 -8.5 -6 -10.4 -9.3 -1.4 -2.7 -1.7 -6.1 -1.7 -22.7 l0 -19.5 2.8 -4.8 c1.8 -3 4.2 -5.4 6.7 -6.7 3.4 -1.7 4 -2.5 4 -5.1 0 -2.3 1 -4.2 3.9 -7 l3.9 -3.9 15.6 0 15.6 0 0 -17.4 0 -17.3 -3.9 -4.9 c-8.8 -11.2 -14.4 -24.8 -16.2 -39.6 -1.3 -10.9 0 -29.6 3.6 -51.3 1.4 -8.2 2.5 -15.6 2.5 -16.2 0 -0.8 -1.3 -1.3 -3.3 -1.3 -3 0 -3.5 0.5 -8.5 9.7 -3 5.3 -5.4 10.4 -5.4 11.2 0 0.9 0.8 3.6 1.7 6.1 4.4 11.5 -2.5 51.3 -11 64.1 -1.9 3 -3.6 4.2 -6.8 5.1 l-4.3 1.1 3.6 7.3 c2.1 4 4.3 9.9 5 13.2 1 5.1 1 6.3 -0.4 9 -2.2 4.2 -5.3 6.2 -9.7 6.2 -4.9 0 -8.5 -3 -11.4 -9.5 -2.7 -6.2 -4 -7.3 -5.5 -4.5 -1.4 2.6 -0.1 9.5 3.5 18 3.3 7.9 3.2 11.1 -0.6 15.4 -4.2 4.9 -8.3 5.5 -15.1 2.4 -2.9 -1.4 -6.8 -3.1 -8.6 -3.8 -4.6 -1.8 -11.8 -10.1 -13.7 -16.1 -1.8 -5.3 -3.1 -12.6 -4.1 -22.6 -0.7 -7 0.6 -15.7 3.8 -24.9 l2.2 -6.2 -3 -2.5 c-2.8 -2.4 -2.9 -2.9 -2.8 -10.4 0.1 -6.4 0.9 -9.9 4.3 -19.8 6.7 -18.9 18.2 -39.4 27 -47.9 3.4 -3.3 4.8 -4 8.3 -4.1 l4.2 -0.1 6.4 -11.2 6.3 -11.2 -1.1 -5.8 c-4.9 -24.5 19.9 -47.2 44.5 -40.9 3.3 0.9 6.8 1.8 7.7 2.2 1.3 0.5 1.9 -0.2 2.7 -3.1 1.1 -4 0.8 -5.4 -1.3 -5.4 -5.6 0 -29.4 -10.5 -37.8 -16.7 -10.1 -7.4 -20 -20.9 -25 -34 -2.1 -5.8 -2.6 -6.4 -6.7 -7.8 -20.5 -7 -30.1 -26.7 -28.8 -59 1.1 -26.4 8.5 -40.8 25 -48.6 3.4 -1.6 6.7 -2.9 7.2 -2.9 0.6 0 2.3 -3.5 3.8 -7.8 7.4 -19.9 20.9 -35.5 40.8 -47.2 l9.1 -5.4 -0.6 -4.4 c-0.3 -2.5 -0.6 -6.6 -0.6 -9.3 l0 -4.7 -6.2 -3.5 c-7.4 -4.2 -14.7 -11.4 -17.9 -17.7 -3.2 -6.3 -3.2 -15.8 -0.1 -22.2 8.7 -17.7 44.3 -40.5 78.6 -50.4 39.4 -11.4 77.2 -7.8 116.1 11.1 25.7 12.5 46 28.9 50.4 40.8 2.6 7.3 2.7 12.1 0 19.2 -2.6 6.9 -9.2 13.9 -18.1 19 l-6.7 3.9 -0.3 9.3 -0.3 9.3 7.5 4.4 c20.7 12 32.6 25.3 41 45.8 3.8 9.1 4 9.3 8.7 11.3 14.2 5.9 22.2 15.5 25.9 31.2 6.1 25.9 1.2 56.2 -11.1 68.7 -3.4 3.4 -16.3 10.6 -19.1 10.6 -0.6 0 -1.6 1.9 -2.3 4.3 -4.2 14.1 -16.4 30 -29.9 38.8 -7.3 4.8 -24.5 12.2 -31.5 13.4 -2 0.4 -3.9 1.1 -4.2 1.5 -0.5 0.8 1.3 8 2.1 8 0.2 0 3.3 -0.9 6.7 -2.1 7.4 -2.5 16.3 -2.2 24.5 0.9 15.3 5.8 25.4 23.9 22.3 39.7 -1 5 -1 5.1 5.3 16.5 5.8 10.6 6.5 11.5 9 11.2 6.1 -0.7 11.9 4.5 20.3 17.9 9.6 15.4 18.7 36.9 21.2 50.5 1.2 6.4 0 11.6 -3.5 14.3 l-2.5 2 2.7 8.3 c4.7 14.5 3.6 36.8 -2.6 49.4 -1.7 3.4 -4.5 7.3 -6.3 8.6 -4 3.1 -18.3 9.8 -20.9 9.8 -5.1 0 -11.8 -6.6 -11.8 -11.7 0 -1.1 1.1 -4.5 2.5 -7.5 3.4 -7.4 5 -15.4 3.6 -18.5 -1.5 -3.2 -2.7 -2.2 -5.5 4.1 -2.7 6.1 -6.7 9.6 -10.8 9.6 -6.6 0 -10.7 -4.3 -10.8 -11.2 0 -5 3.6 -16 6.8 -20.6 3.5 -5.1 3.6 -5.5 1.4 -4.7 -1.3 0.3 -3.6 -0.1 -5.6 -1 -4.7 -2.3 -9.1 -10.8 -12.6 -24.8 -5.2 -20.7 -6.2 -39.5 -2.5 -46.8 1.6 -2.9 1.5 -3.2 -4 -13.4 -5.5 -10.3 -5.7 -10.5 -9.2 -10.5 -3.4 0 -3.5 0.1 -2.9 3.3 6.5 35.9 7.9 62.8 3.8 77 -2.8 9.8 -8.1 20.6 -13.8 27.9 l-4.4 5.6 0 17.1 0 17.1 15.1 0 c12.2 0 15.6 0.3 17.9 1.6 3.3 2 6 6.3 6 9.7 0 1.9 0.9 3 3.8 4.4 2 1.1 5.1 3.9 6.7 6.2 l3 4.3 0 20.1 c0 23.5 -0.7 26.1 -8.2 30.6 -2.6 1.6 -4.6 3.6 -4.9 5.1 -1.1 4.3 -4.3 8.7 -7.2 9.8 -3.2 1.3 -25.5 1.9 -39.7 1.2z m-147.5 -10.7 c1.1 -1.4 1.9 -3.1 1.7 -3.7 -0.3 -0.8 -7.9 -1.1 -23.7 -1.1 -25.2 0 -26.3 0.3 -21.6 5 l2.5 2.5 19.5 0 19.5 0 2.1 -2.7z m183.6 0.2 c4.7 -4.7 3.6 -5 -21.6 -5 -25.2 0 -26.3 0.3 -21.6 5 2.5 2.5 2.5 2.5 21.6 2.5 19.1 0 19.1 0 21.6 -2.5z m-181.8 -23.2 l0.3 -7.3 -24.1 0 -24 0 0 6.9 0 7 3.8 0.4 c2 0.2 12.7 0.3 23.7 0.3 l20 -0.1 0.3 -7.2z m184 0 l0.3 -7.3 -24.1 0 -24 0 0 6.8 c0 3.8 0.3 7.2 0.7 7.6 0.4 0.3 11 0.5 23.7 0.4 l23.1 -0.3 0.3 -7.2z m-170.3 -12.3 c0 -10.4 -0.4 -16.2 -1.2 -17.5 -1 -1.6 -1.2 1.7 -1.2 17.5 0 15.8 0.2 19.1 1.2 17.5 0.8 -1.3 1.2 -7.1 1.2 -17.5z m111.5 0.3 c0 -12.5 -0.4 -18.3 -1 -17.3 -1.7 2.7 -1.1 36 0.6 36 0.2 0 0.4 -8.4 0.4 -18.7z m-183.8 -1.2 c-0.2 -10.8 -0.7 -16.9 -1.3 -16 -1 1.6 -1.2 30.8 -0.3 33.4 1.5 3.8 1.9 -1 1.6 -17.4z m255.8 0.9 c0 -8.5 -0.5 -16.2 -1 -17 -0.6 -1 -1 4.7 -1 17 0 12.3 0.4 18 1 17 0.5 -0.8 1 -8.5 1 -17z m-197 -13 l0 -7 -24 0 -24 0 0 7 0 7 24 0 24 0 0 -7z m184 0 l0 -7 -24 0 -24 0 0 7 0 7 24 0 24 0 0 -7z m-161 -25.3 l0 -12.3 -8.7 -3.9 c-4.9 -2.2 -11.7 -5.9 -15.2 -8.2 -3.5 -2.4 -6.5 -4.3 -6.7 -4.3 -0.2 0 -0.4 3.8 -0.4 8.5 l0 8.5 3.8 0.1 c8.4 0.1 15.2 5.4 15.2 11.8 0 2.2 0.7 3 3.5 4 2.1 0.7 4.5 2.7 5.8 4.7 1.2 1.8 2.3 3.4 2.5 3.4 0.1 0 0.2 -5.5 0.2 -12.3z m98.1 4.6 c3 -1.3 3.8 -2.2 4.3 -5.3 1.1 -7.2 6.5 -11 15.6 -11 l3.5 0 0.1 -8.9 0.2 -8.9 -7.2 4.6 c-4 2.6 -10.8 6.4 -15.3 8.6 l-8 3.9 -0.7 7.5 c-0.3 4.1 -0.6 9.8 -0.6 12.6 l0 5.1 2.3 -3.3 c1.2 -1.8 3.8 -4 5.8 -4.9z m-121.1 1.2 c0 -0.9 -1.1 -2.7 -2.5 -4 -2.4 -2.5 -2.6 -2.5 -21.2 -2.5 -20.5 0 -22.6 0.5 -23.5 5.5 l-0.5 2.5 23.8 0 c20.9 0 23.9 -0.2 23.9 -1.5z m183.5 -0.7 c-1.6 -5.4 -3.2 -5.8 -23.4 -5.8 -20.3 0 -22.4 0.5 -23.3 5.5 l-0.5 2.5 23.9 0 23.9 0 -0.6 -2.2z m-276.7 -24 c-1.5 -4.6 -2.8 -9.1 -2.8 -10 0 -1.4 -0.8 -1.8 -3.5 -1.8 -2.8 0 -3.5 0.4 -3.5 2 0 6.4 8.9 21.2 11.4 19.1 1 -0.8 0.6 -2.9 -1.6 -9.3z m325.5 6.2 c2.7 -3.2 6.7 -12.8 6.7 -16 0 -1.6 -0.7 -2 -3.5 -2 -3 0 -3.5 0.3 -3.5 2.3 0 1.2 -1.2 5.4 -2.5 9.2 -1.4 3.9 -2.5 7.6 -2.5 8.3 0 2.2 2.8 1.3 5.3 -1.8z m-144.1 -5 c14.7 -3 16.2 -3.8 17.8 -9.4 1.7 -6.3 7.1 -15.1 12.8 -20.9 9.4 -9.8 20.4 -16.2 35.2 -20.6 5.7 -1.8 7.4 -3.6 8.6 -9.8 l0.6 -2.9 -14.9 2.3 c-52.9 8.3 -110.7 8.1 -163.3 -0.6 -6.3 -1 -11.7 -1.7 -11.9 -1.5 -0.2 0.2 0.5 2.6 1.5 5.5 l1.9 5.1 9.5 3.2 c22.9 7.6 38.6 22.2 44.9 41.8 1.1 3.5 1.5 3.7 9.2 5.8 12.4 3.3 15.6 3.8 27.2 3.9 7.4 0.1 14.1 -0.6 20.9 -1.9z m-157.4 -20.8 c-1.2 -4.3 -5.3 -12.8 -6.6 -13.6 -0.5 -0.3 -1.7 0.3 -2.7 1.4 -1.6 1.8 -1.6 2 0.8 5.2 1.3 1.8 3.4 5.5 4.6 8.2 1.7 4 2.4 4.6 3.5 3.7 1.1 -0.9 1.2 -2 0.4 -4.9z m278.4 1.1 c1.1 -2.7 3.2 -6.3 4.5 -8.1 l2.6 -3.4 -2.1 -2.1 -2.1 -2.1 -3.6 7.4 c-3.4 7.2 -4.2 10.9 -2.8 12.3 1.1 1.2 1.3 0.9 3.5 -4z m-302.8 -6.8 c0.9 -1.3 1.6 -3.8 1.6 -5.5 0 -4.3 2.3 -9.3 5.4 -11.7 1.4 -1.2 2.6 -2.3 2.6 -2.5 0 -1.8 -25.8 -9.4 -27.2 -8 -1.2 1.2 -5.6 17.7 -5.8 21.7 -0.4 7.8 -0.8 7.4 7.8 7.8 4.2 0.1 9.1 0.4 10.8 0.5 2.4 0.2 3.6 -0.4 4.8 -2.3z m346.9 0.8 c1.7 -1.1 -3.6 -25.7 -6.2 -28.6 -0.9 -0.9 -13.7 2.4 -21.5 5.6 l-5.9 2.4 2.6 1.7 c3.2 2.2 5.7 7.4 5.7 12.1 0 2 0.8 4.7 1.8 6.1 1.7 2.5 1.8 2.5 12.2 1.8 5.8 -0.3 10.8 -0.8 11.3 -1.1z m-317.3 -29.5 c1.1 -1.8 2 -3.6 2 -4 0 -1 -16.9 -9.1 -25.7 -12.4 -5.6 -2.1 -25.2 -7.4 -27.5 -7.4 -0.9 0 -2.7 9 -2.1 10.6 0.3 0.8 1.9 1.6 3.6 1.8 18.9 2.7 30.2 6 39.9 11.4 2.9 1.6 5.9 3 6.6 3.1 0.7 0 2.1 -1.4 3.2 -3.1z m272 0.7 c12.8 -6.5 29.8 -11.5 38.9 -11.5 2.1 0 4.5 -0.6 5.5 -1.3 1.7 -1.3 1.8 -1.9 0.6 -6.5 -1.2 -5 -1.2 -5.1 -4.3 -4.5 -7.1 1.2 -18.7 4.4 -25.3 6.9 -9 3.4 -25.4 11.2 -25.4 12.2 0 1 3.9 7.2 4.5 7.2 0.3 0 2.8 -1.1 5.5 -2.5z m-99 -13.1 c16.4 -1.4 34.8 -3.9 50 -6.7 l6.5 -1.2 -0.1 -9 c-0.2 -10.3 -2.1 -23.9 -7 -50.8 -3.3 -17.9 -12.2 -59.8 -12.9 -60.5 -0.4 -0.4 -21.9 1.9 -22.4 2.4 -0.2 0.2 0.8 2.2 2.3 4.4 2 3 2.6 5.1 2.4 7.7 -0.3 3.7 -0.3 3.7 -14.1 10 -29.3 13.4 -54.3 26.1 -56.7 28.7 l-2.5 2.8 -0.3 36.8 -0.3 36.9 4.3 0.4 c6.7 0.7 31.5 -0.3 50.8 -1.9z m-66.1 -84.4 c0.7 -1.4 2.3 -3.5 3.4 -4.7 l2 -2.3 -11.9 -5.6 c-31.7 -14.8 -29.4 -13.5 -29.4 -16.5 0 -1.6 1.4 -5 3 -7.6 l3.1 -4.8 -9.3 -1.2 c-14.7 -1.8 -13.3 -2.4 -15.1 6.5 -0.9 4.2 -3.5 16.3 -5.7 26.7 -5.3 24.5 -11.7 62.3 -12.5 74.5 -0.6 7.5 -0.4 9.8 0.6 10.7 2.5 2 46.2 8.4 64.9 9.5 l4.5 0.3 0.5 -41.5 c0.4 -32.6 0.8 -42 1.9 -44z m-104.3 36.2 c1.3 -0.9 12.9 -23.1 12.3 -23.6 -0.2 -0.2 -2.2 -1.3 -4.4 -2.4 -2.2 -1.1 -5.8 -3.8 -8 -6.1 l-4.1 -4 -4.1 7.4 c-3.7 6.7 -4 7.8 -3.2 11.2 0.5 2.1 0.9 5.9 0.9 8.4 0 4.9 1.4 7 6 8.8 3.1 1.2 3.3 1.2 4.6 0.3z m265.2 -1.2 c3.8 -2.3 3.6 -2 5 -12.2 l1 -7.8 -4 -7.5 -4 -7.6 -3.6 3.9 c-2.1 2.2 -5.7 5 -8.2 6.2 -2.5 1.2 -4.6 2.4 -4.8 2.5 -0.5 0.5 9.9 20.8 11.6 22.8 1.9 2.2 3 2.1 7 -0.3z m-115.7 -84.2 l6 -6.7 -26.8 -0.3 c-14.7 -0.2 -26.9 -0.3 -27 -0.3 -0.1 0.1 5.7 7 13 15.5 l13.1 15.3 7.9 -8.4 c4.3 -4.6 10.5 -11.4 13.8 -15.1z m6.9 -17.8 c32.3 -1.9 53.4 -5.5 70 -12.1 20 -8 34.1 -21.5 41.5 -39.7 l2.5 -6.3 0.1 -54.3 0.1 -54.3 -3.2 -7.4 c-3.2 -7.3 -10.7 -19.6 -13.4 -21.8 -1.1 -0.9 -1.5 -0.4 -2 2.8 -0.3 2.1 -2.4 10.1 -4.6 17.8 l-4 13.8 3.5 7.1 c6 12.1 7.6 20.4 8.2 41.9 1.1 37.8 -3.5 56.4 -17.2 70 -10.7 10.5 -24.4 15.5 -52.1 19.2 -20.4 2.6 -92.6 2.6 -112.8 0 -26.9 -3.6 -41.3 -8.8 -52 -19.1 -12.3 -11.9 -17.6 -30.9 -17.6 -63.6 0 -23.8 2.8 -38.4 9.5 -50.9 l2.7 -4.8 -2.5 -7.9 c-1.3 -4.4 -3.5 -12.3 -4.8 -17.7 l-2.3 -9.8 -3.3 3.8 c-1.8 2.1 -5.6 8.5 -8.5 14.1 l-5.3 10.4 0 56.2 0 56.3 4.2 8.4 c10.3 20.6 25.5 32.2 52.3 39.8 24.8 7.1 70.1 10.4 111 8.1z m-77.3 -79.5 c11.2 -5.5 18.7 -15.2 21.2 -27.7 2.9 -13.9 -6.6 -30.4 -22.1 -38.5 -4.5 -2.3 -6.5 -2.7 -13.3 -2.8 -6.8 0 -8.9 0.4 -13.7 2.8 -21 10.3 -28.8 33.5 -17.3 51.7 7.5 11.8 21.4 19.6 33 18.4 2.8 -0.2 8.1 -2 12.2 -3.9z m123.5 2.5 c14.5 -4.5 24.4 -15.3 27.8 -30.4 2.9 -13.2 -7.8 -31.4 -22.8 -38.4 -8.1 -3.8 -18.3 -3.8 -26.5 0 -7 3.3 -16.4 12.5 -19.4 18.9 -3 6.4 -4.2 14 -3.2 19.7 2.6 13.7 14.9 26.9 28.7 30.7 6.5 1.8 8.1 1.8 15.4 -0.5z m98.9 -14.7 c4 -15.9 3.2 -35.7 -2 -47.4 l-2 -4.4 0 31.5 c0 33.3 0.2 34.8 4 20.3z m-340.3 -35.5 l-0.3 -15.3 -2.3 6.5 c-5.2 14.9 -5.2 33.1 0 48 l2.3 6.5 0.3 -15.2 c0.1 -8.4 0.1 -22.2 0 -30.5z m69.3 -46.2 c16.3 -9.1 70.9 -14.3 124.2 -11.8 39.9 1.9 59.6 5 72.1 11.2 3.3 1.7 6.3 2.7 6.7 2.3 1 -1.2 4.5 -12.6 7.4 -24.2 l2.7 -10.4 -2.9 -2.4 c-1.5 -1.3 -5.7 -4.1 -9.2 -6.2 l-6.4 -4 -3.6 2.9 c-7.6 6.1 -19.2 9.8 -39.1 12.7 -14.5 2 -69 2.9 -88.7 1.4 -31.6 -2.4 -45 -5.9 -58.4 -15.3 -1.4 -0.9 -3 -0.4 -8.5 3 -3.8 2.3 -7.9 4.9 -9.1 5.9 l-2.3 1.8 2.1 8.5 c2 8.4 6.7 24.8 7.6 26.3 0.6 1 0.5 1 5.4 -1.7z m186.9 -60.5 c-2.9 -1.7 -26.6 -8.2 -38.5 -10.6 -20.4 -4 -30.2 -4.9 -50.5 -4.9 -26.4 0.1 -47.4 3.4 -76.3 11.9 -9.6 2.8 -6 2.5 6.3 -0.5 24.3 -5.9 39.6 -7.5 71.5 -7.5 24.9 0 31.1 0.4 43.5 2.3 13.8 2.1 35.7 6.9 41 9.1 3.1 1.2 5 1.3 3 0.2z m-173.2 -31.9 c19 -9 48.1 -17.2 61.4 -17.2 l3.8 0 0 4.4 c0 5.2 1 6.1 6.6 5.7 5.7 -0.3 10.1 2 10.9 5.9 0.9 4.2 4 4 5.5 -0.4 1.4 -4.2 5.3 -6 11.5 -5.3 5.3 0.5 6 -0.1 5.6 -6 l-0.3 -4.3 3.9 0 c9.3 0 35.1 6 48.1 11.1 9.3 3.7 23.1 10.5 25.3 12.5 2.4 2.2 3.3 1.8 9.4 -3.8 6 -5.5 9.6 -11.3 9.7 -15.8 0.5 -15.6 -39 -43 -78.2 -54.3 -34.4 -10 -68 -6.3 -104.7 11.3 -28.7 13.8 -49.3 31.7 -49.3 43 0 5.9 5.7 13.6 14.5 19.7 2.8 2 3 2 4.1 0.4 0.7 -0.9 6.2 -4.1 12.2 -6.9z"/>
  <path d="M124.3 274.6 c-8.7 -2.8 -15.8 -9.1 -19.4 -17 -2.7 -5.9 -2.6 -23.4 0.1 -29.3 3.1 -7 7.9 -12.1 14.3 -15.3 5.4 -2.7 7 -3 15.2 -3 11.4 0 16.9 1.8 23.4 7.6 7.4 6.7 9.6 12.5 9.6 25.4 0 9.1 -0.3 11.1 -2.4 15.3 -3.2 6.1 -8.3 11.2 -14.6 14.5 -6.1 3.1 -19.4 4 -26.2 1.8z m15.3 -23.5 c4 -2.4 6.6 -7.8 5.2 -10.6 -1.7 -3.2 -5.1 -6.6 -7.6 -7.6 -3.1 -1.2 -7.7 1.2 -10.2 5.4 -2.6 4.3 -2.5 5.9 0.7 9.7 4.3 5.1 7.3 5.9 11.9 3.1z"/>
  <path d="M254.5 274.7 c-6.5 -2.2 -9.9 -4.3 -13.9 -8.8 -6.4 -7 -8.1 -11.9 -8.1 -23.4 0 -8.9 0.3 -10.6 2.8 -15.7 3.3 -6.7 8 -11.2 15.5 -14.6 4.8 -2.2 6.4 -2.4 15.5 -2 9 0.3 10.8 0.7 15.6 3.3 5.9 3.3 10 7.7 13.3 14.5 3.1 6.5 3.2 22.4 0.1 29.2 -3 6.6 -9.5 13.2 -15.6 15.9 -6.4 2.7 -19.2 3.6 -25.2 1.6z m16.6 -25.6 c2.2 -2.1 3.9 -4.7 3.9 -5.7 0 -3 -3.6 -8.2 -7 -9.9 -2.7 -1.4 -3.3 -1.4 -5.9 0 -3.6 1.8 -7.1 6.1 -7.1 8.7 0 4.6 6.2 10.7 10.9 10.8 0.7 0 3.1 -1.7 5.2 -3.9z"/>
 </g>
 <g fill="#546e75">
  <path d="M80.5 672.9 c-1.9 -1.7 -3.5 -3.6 -3.5 -4.1 0 -0.6 1 0.2 2.2 1.7 1.2 1.5 3.5 3.3 5.2 4.1 1.8 0.8 2.4 1.3 1.4 1.4 -1 0 -3.3 -1.4 -5.3 -3.1z"/>
  <path d="M264.8 673.8 c-2.5 -2.1 -4.8 -6.1 -4.8 -8.5 0 -1.6 -1.1 -2.8 -3.8 -4.2 -2.1 -1.1 -4.5 -2.7 -5.3 -3.7 -1.1 -1.4 -0.8 -1.4 1.6 0.3 1.7 1.1 4.2 2.8 5.8 3.7 1.7 1.1 2.7 2.5 2.7 4.1 0 1.3 1.4 4 3.1 6 3.2 3.6 3.5 4.5 0.7 2.3z"/>
  <path d="M319.9 671.5 c1.7 -2 3.1 -4.7 3.1 -6 0 -1.9 1.2 -3.2 4.8 -5.5 2.7 -1.6 5.4 -4.1 6.2 -5.5 0.7 -1.4 1.5 -2.3 1.8 -2.1 0.9 1 -3.8 6.3 -7.3 8.2 -2.2 1.1 -3.8 2.9 -4.2 4.4 -0.8 3.6 -4.1 8.7 -5.9 9.4 -0.9 0.3 -0.2 -1 1.5 -2.9z"/>
  <path d="M83.4 668.5 c-2 -2 -2.5 -3.3 -2.2 -6.8 l0.3 -4.2 26.5 0 26.5 0 0.3 4.1 c0.2 2.9 -0.3 4.7 -1.8 6.7 l-2.1 2.7 -22.5 0 -22.5 0 -2.5 -2.5z"/>
  <path d="M267.4 668.5 c-2 -2 -2.5 -3.3 -2.2 -6.8 l0.3 -4.2 26.5 0 26.5 0 0.3 4.2 c0.3 3.5 -0.2 4.8 -2.2 6.8 l-2.5 2.5 -22.1 0 -22.1 0 -2.5 -2.5z"/>
  <path d="M139.1 667.3 c-0.2 -2.2 1.9 -6.3 3.1 -6.3 0.9 0 1 0.3 0.2 0.8 -0.6 0.4 -1.6 2.1 -2.2 3.7 -0.6 1.7 -1.1 2.5 -1.1 1.8z"/>
  <path d="M76.1 664.8 c-0.1 -1.7 -0.7 -2.8 -1.5 -2.8 -0.8 0 -1.7 -0.4 -2 -0.9 -0.4 -0.5 0.3 -0.7 1.5 -0.4 2.4 0.7 3.3 2.4 2.6 5 -0.3 1.2 -0.5 0.8 -0.6 -0.9z"/>
  <path d="M148 657.5 c4 -4.8 4.3 -5.1 3.2 -3 -0.6 1.1 -2.1 2.9 -3.4 4 -2.2 1.9 -2.2 1.9 0.2 -1z"/>
  <path d="M256 654.3 l-3.5 -3.1 -0.3 -19.9 c-0.2 -18.3 -0.1 -20 1.7 -23 1.1 -1.7 2.9 -3.7 4 -4.3 2 -1 2 -0.7 2.3 21.7 0.2 12.6 0.1 24.8 -0.2 27.3 l-0.5 4.4 -3.5 -3.1z"/>
  <path d="M72.7 654.9 c-4 -2.3 -4.7 -6 -4.7 -24.9 0 -19.1 0.4 -21.4 4.9 -25.4 1.2 -1.1 2.3 -1.7 2.6 -1.4 0.7 0.6 1.3 44.3 0.7 49.1 -0.5 4 -0.8 4.2 -3.5 2.6z"/>
  <path d="M140 629.5 c0 -14.6 0.4 -26.5 0.8 -26.5 1.7 0 6.3 5.8 7.2 9.1 1.2 4.2 1.3 30 0.1 35.2 -0.5 2.2 -1.9 5 -3.2 6.3 -4.8 5.1 -4.9 4.4 -4.9 -24.1z"/>
  <path d="M324 629.5 c0 -14.6 0.4 -26.5 0.8 -26.5 1.1 0 4.6 3.9 6.1 6.7 0.7 1.4 1.1 8.9 1.1 20.5 0 15.7 -0.3 18.7 -1.7 20.8 -1.8 2.7 -4.3 4.9 -5.5 5 -0.5 0 -0.8 -11.9 -0.8 -26.5z"/>
  <path d="M247.4 651.4 c-0.8 -2 -1.4 -4 -1.2 -4.5 0.2 -0.5 1 1.1 1.9 3.6 2 5.4 1.4 6 -0.7 0.9z"/>
  <path d="M81.5 652.2 c-0.3 -0.3 -0.5 -5 -0.5 -10.4 l0 -9.8 27 0 27.1 0 -0.3 10.3 -0.3 10.2 -26.2 0.1 c-14.5 0 -26.5 -0.1 -26.8 -0.4z"/>
  <path d="M265.7 652.3 c-0.4 -0.3 -0.7 -5.1 -0.7 -10.5 l0 -9.8 27 0 27.1 0 -0.3 10.3 -0.3 10.2 -26.1 0.3 c-14.3 0.1 -26.3 -0.1 -26.7 -0.5z"/>
  <path d="M152.8 644.7 c0.3 -6.3 0.7 -7.5 3 -9.6 1.5 -1.3 3.5 -3.6 4.4 -5 1 -1.4 1.8 -2 1.8 -1.3 0 0.6 -1.8 2.9 -4 5.1 -3.8 3.6 -4 4.2 -4 9.7 0 3.3 -0.4 6.4 -0.8 7.1 -0.4 0.7 -0.6 -2 -0.4 -6z"/>
  <path d="M336.1 650 c0 -0.8 0.4 -2.4 0.9 -3.5 0.5 -1.3 0.9 -1.4 0.9 -0.5 0 0.8 -0.4 2.4 -0.9 3.5 -0.5 1.3 -0.9 1.4 -0.9 0.5z"/>
  <path d="M241.1 632.5 c-1.7 -2 -3.1 -4.1 -3.1 -4.8 0 -0.7 0.6 -0.3 1.2 0.8 0.6 1.1 2.2 3.2 3.6 4.8 1.4 1.5 2.3 2.7 2 2.7 -0.3 0 -2 -1.6 -3.7 -3.5z"/>
  <path d="M153.4 620.5 c-0.2 -12.2 -2.7 -17.9 -9.1 -21 -3.3 -1.6 -4.2 -2.5 -4.3 -4.6 -0.1 -6.5 -6.8 -11.7 -15.2 -11.8 l-3.8 -0.1 0 -14.6 0 -14.6 4.1 3.7 c5.9 5.3 14.4 10.6 24.3 15 l8.6 3.9 0 24.1 c0 17 -0.4 24.7 -1.3 26.4 -2.4 4.8 -3.2 3.2 -3.3 -6.4z"/>
  <path d="M243.5 627 c-1.3 -2.5 -1.6 -7 -1.4 -26.6 l0.1 -23.5 10.2 -5.1 c11.1 -5.6 19.8 -11.2 23.5 -15.2 1.4 -1.4 2.8 -2.6 3.3 -2.6 0.4 0 0.7 6.5 0.6 14.5 l-0.1 14.5 -3.6 0 c-9.1 0 -14.6 3.8 -15.7 11 -0.5 3.1 -1.2 4 -4.3 5.3 -2 0.9 -4.7 3.3 -6.1 5.4 -2.2 3.2 -2.5 4.9 -2.8 14.5 -0.2 5.9 -0.8 10.8 -1.3 10.8 -0.5 0 -1.6 -1.4 -2.4 -3z"/>
  <path d="M81 617 l0 -10 27 0 27 0 0 10 0 10 -27 0 -27 0 0 -10z"/>
  <path d="M162.2 602.8 c-0.2 -23 -0.1 -24.8 1.6 -24.8 1.2 0 1.3 0.3 0.5 0.8 -0.9 0.6 -1.3 7.1 -1.6 24.7 l-0.2 24 -0.3 -24.7z"/>
  <path d="M265 617 l0 -10 27 0 27 0 0 10 0 10 -27 0 -27 0 0 -10z"/>
  <path d="M81.3 596.8 c1 -8.8 1.2 -8.8 26.9 -8.8 l21.9 0 2.4 2.5 c1.9 1.8 2.5 3.5 2.5 7 l0 4.5 -27.1 0 -27.2 0 0.6 -5.2z"/>
  <path d="M265.3 596.8 c1 -8.7 1.2 -8.8 26.7 -8.8 25.6 0 25.9 0.1 26.8 8.8 l0.5 5.2 -27.3 0 -27.3 0 0.6 -5.2z"/>
  <path d="M76 593.8 c0.6 -3 1.9 -5.2 4.4 -7.5 l3.6 -3.3 15.4 0 c13.9 0 15.5 -0.2 15.9 -1.7 0.4 -1.4 0.5 -1.2 0.6 0.5 0.1 2.2 0.1 2.2 -16 2.2 l-16.1 0 -3.4 3.4 c-2.6 2.6 -3.4 4.2 -3.4 7 0 2 -0.4 3.6 -0.9 3.6 -0.4 0 -0.5 -1.9 -0.1 -4.2z"/>
  <path d="M323.7 597.3 c-0.4 -0.3 -0.7 -2 -0.7 -3.6 0 -2 -1.1 -4 -3.4 -6.3 l-3.4 -3.4 -16.1 0 -16.1 0 0.1 -2.7 c0.2 -2.4 0.2 -2.5 0.6 -0.5 0.4 2.2 0.7 2.2 15.5 2.2 18.9 0 22 1.5 23.8 11.3 0.8 3.9 0.7 4.1 -0.3 3z"/>
  <path d="M357.3 591.2 c-0.6 -0.4 1.1 -0.7 3.7 -0.7 2.6 0 4.3 0.3 3.7 0.7 -0.7 0.4 -2.3 0.8 -3.7 0.8 -1.4 0 -3 -0.4 -3.7 -0.8z"/>
  <path d="M32.5 589.7 c-1.1 -0.7 -4.1 -2.1 -6.7 -3.1 -7 -2.6 -13.2 -10 -15.9 -18.8 -1.2 -3.8 -1.9 -7.1 -1.7 -7.3 0.2 -0.3 1.4 2.8 2.6 6.8 2.6 9.1 8 15.7 15 18.3 5.1 2 11.3 5.4 9.7 5.4 -0.6 0 -1.9 -0.6 -3 -1.3z"/>
  <path d="M45.5 588.8 c1.5 -1.2 3.3 -3.5 4.1 -5.2 0.8 -1.8 1.3 -2.4 1.4 -1.4 0 1.9 -5.6 8.8 -7.2 8.8 -0.6 0 0.2 -1 1.7 -2.2z"/>
  <path d="M33.1 582.3 c-3.8 -4.6 -6.9 -12.5 -7.7 -20 l-0.7 -5.6 3.3 0.6 c1.8 0.4 5 0.7 7.1 0.7 2.9 0 3.9 0.4 3.9 1.6 0 0.9 1.4 5.6 3 10.6 4.4 12.9 3.9 15.8 -2.6 15.8 -2.5 0 -3.9 -0.8 -6.3 -3.7z"/>
  <path d="M356.6 584.4 c-2.2 -2.2 -2 -5.1 0.9 -12.1 1.3 -3.4 2.7 -8 3.1 -10.2 l0.7 -4.1 5.2 0 c3 0 6.1 -0.3 7.1 -0.7 1.5 -0.6 1.7 -0.1 1.1 5 -2 16.3 -11.8 28.4 -18.1 22.1z"/>
  <path d="M380.6 581.7 c7.6 -6.9 9.9 -13.3 12.4 -34.7 l0.8 -6.5 -0.3 6.5 c-0.8 20.3 -6 32.5 -16.5 38.5 -0.8 0.5 0.8 -1.2 3.6 -3.8z"/>
  <path d="M349.6 583.4 c-0.8 -2.1 -0.7 -5.6 0.2 -7.1 0.4 -0.6 0.7 1.1 0.7 3.8 0 2.7 -0.1 4.9 -0.1 4.9 -0.1 0 -0.5 -0.7 -0.8 -1.6z"/>
  <path d="M181.5 583 c-2.7 -0.7 -2.8 -0.8 -0.5 -0.8 1.4 0 3.4 0.3 4.5 0.8 2.5 1.1 0.2 1.1 -4 0z"/>
  <path d="M193.8 583.3 c3.4 -0.2 9 -0.2 12.5 0 3.4 0.2 0.6 0.3 -6.3 0.3 -6.9 0 -9.7 -0.1 -6.2 -0.3z"/>
  <path d="M225 581 c1.4 -0.4 3.4 -0.8 4.5 -0.8 1.6 0 1.5 0.2 -0.5 0.8 -1.4 0.4 -3.4 0.8 -4.5 0.8 -1.6 0 -1.5 -0.2 0.5 -0.8z"/>
  <path d="M237.1 580.7 c-0.1 -1.3 -0.7 -1.6 -2.8 -1.2 l-2.8 0.5 2.8 -1.1 c3.2 -1.3 4.1 -0.8 3.4 1.8 -0.4 1.7 -0.5 1.7 -0.6 0z"/>
  <path d="M22.6 578.9 c-3.4 -2.7 -6.2 -8.3 -8 -15.9 l-1.4 -6 3.3 0 c3.2 0 3.2 0.1 3.9 5.8 0.4 3.1 1.8 8.4 3.1 11.6 1.3 3.3 2.3 6.1 2.1 6.3 -0.2 0.2 -1.5 -0.6 -3 -1.8z"/>
  <path d="M374.5 579.4 c3.3 -8.1 4.6 -12.1 5.1 -16.9 0.6 -5.2 0.8 -5.5 3.5 -5.5 1.6 0 2.9 0.6 3 1.3 0.3 3.3 -0.5 6.7 -2.7 11.7 -2.7 5.8 -4.8 8.6 -7.8 10.2 -1.6 0.9 -1.8 0.8 -1.1 -0.8z"/>
  <path d="M47.7 572.7 c-3.7 -9.7 -3.4 -11.1 0.4 -1.8 1.6 4.1 2.8 7.8 2.7 8.2 -0.2 0.4 -1.5 -2.5 -3.1 -6.4z"/>
  <path d="M195.8 579.3 c-1 -0.2 -1.8 -1.1 -1.8 -1.9 0 -1.1 1.5 -1.4 6 -1.4 4.4 0 6 0.4 6 1.4 0 2.1 -5.5 3.2 -10.2 1.9z"/>
  <path d="M181.3 577.9 c-2.3 -0.4 -7.8 -1.8 -12.2 -2.9 -7.7 -2.1 -8.1 -2.3 -9.2 -5.8 -1.8 -5.8 -5.8 -13.3 -9.7 -18.4 -7.7 -10.2 -23.9 -20.6 -37.8 -24.4 -5.9 -1.6 -6.8 -2.2 -8 -5.1 -1.8 -4.1 -4.5 -14.5 -4 -15 0.2 -0.2 8.6 0.9 18.7 2.6 10.1 1.6 21.3 3.2 24.9 3.6 9.7 0.9 12 1.5 12 3.1 0 0.9 -1.1 1.4 -3 1.4 -4 0 -31.9 -3.6 -40.8 -5.3 -5.7 -1.1 -7.2 -1.1 -6.8 -0.2 0.2 0.7 1 3.2 1.7 5.4 1.2 4 1.6 4.3 7.1 5.8 3.2 0.9 5.8 2 5.8 2.5 0 0.4 1.1 0.8 2.5 0.8 1.4 0 2.5 0.5 2.5 1 0 0.6 1.1 1 2.4 1 1.4 0 3.1 0.6 3.8 1.4 0.8 0.7 2.4 1.7 3.6 2 1.2 0.4 2.2 1.4 2.2 2.2 0 0.8 0.9 1.4 2 1.4 1.1 0 2 0.7 2 1.5 0 0.8 0.8 1.5 1.8 1.5 2.5 0 4.2 1.9 4.2 4.7 0 1.8 0.6 2.3 2.5 2.3 2 0 2.5 0.5 2.5 2.5 0 1.8 0.5 2.5 2 2.5 1.6 0 2 0.7 2 3.5 0 2.8 0.4 3.5 1.9 3.5 2 0 3.1 1.8 3.1 5.1 0 1 0.4 1.9 0.8 1.9 0.4 0 1.2 1.3 1.8 2.9 1 2.5 2.1 3.1 9.2 5 4.5 1.2 10.4 2.5 13.2 2.8 4 0.5 5 1 5 2.4 0 2.1 -2.3 2.3 -9.7 0.8z"/>
  <path d="M210 577.1 c0 -1.4 1 -1.9 5 -2.4 2.8 -0.3 8.6 -1.6 13 -2.8 7.8 -2.1 8 -2.2 9.2 -6 0.9 -3 1.6 -3.9 3.4 -3.9 l2.2 0 -1.6 5.2 c-2 6.1 -3.2 6.7 -18 9.8 -12.3 2.5 -13.2 2.5 -13.2 0.1z"/>
  <path d="M284.3 569.5 c0 -4.4 0.2 -6.1 0.4 -3.7 0.2 2.3 0.2 5.9 0 8 -0.2 2 -0.4 0.1 -0.4 -4.3z"/>
  <path d="M353.1 570 c0 -0.3 0.6 -2.7 1.4 -5.5 0.8 -3 1.4 -4 1.4 -2.5 0 2 -2.6 9.7 -2.8 8z"/>
  <path d="M54.4 564.6 c-1.9 -1.9 -3.4 -4 -3.4 -4.7 0 -0.8 0.9 0 2 1.8 1 1.7 2.8 3.7 3.9 4.2 3.2 1.7 8.6 1.3 11.7 -1 l2.9 -2.1 -2.8 2.6 c-4.3 3.9 -9.9 3.6 -14.3 -0.8z"/>
  <path d="M333 566.5 c-2.8 -1.5 -5.8 -6.1 -4.7 -7.2 0.4 -0.3 0.7 0 0.7 0.9 0 1.8 3.7 5.4 7 6.7 1.4 0.5 1.8 1 1 1 -0.8 0 -2.6 -0.6 -4 -1.4z"/>
  <path d="M342 566.2 c2 -0.9 4.4 -3.4 5.7 -5.7 2.5 -4.4 3.2 -4.1 0.8 0.5 -1.7 3.3 -6.1 7 -8.4 7 -0.9 0 0 -0.8 1.9 -1.8z"/>
  <path d="M59.4 562 c-1.2 -0.4 -2.9 -2.8 -3.8 -5.2 -1 -2.3 -3.1 -6 -4.7 -8 -1.6 -2 -2.9 -4.5 -2.9 -5.5 0 -2.7 2.7 -6.1 6.2 -7.9 3 -1.5 3.2 -1.5 4.6 0.2 3 4 7.3 14.3 7.9 19.1 0.5 4.5 0.3 5.2 -1.8 6.7 -2.6 1.8 -2.6 1.8 -5.5 0.6z"/>
  <path d="M335 561 c-1.9 -1.9 -2.1 -2.9 -1.6 -6.4 0.7 -4.4 5.8 -16 8.2 -18.7 2 -2.2 4.8 -1.4 7.9 2.3 3 3.6 3.2 6.9 0.5 9.3 -1.1 1 -3.4 4.7 -5 8.2 -1.6 3.4 -3.4 6.3 -3.9 6.3 -0.5 0 -1.6 0.3 -2.4 0.6 -0.9 0.3 -2.5 -0.4 -3.7 -1.6z"/>
  <path d="M71.6 559 c0.8 -4.3 1.4 -5.1 1.4 -1.9 0 1.3 -0.5 3.1 -1 3.9 -0.7 1.1 -0.8 0.5 -0.4 -2z"/>
  <path d="M7.6 555.9 c-0.8 -4.2 0 -5 0.9 -0.9 0.4 1.7 0.5 3.4 0.2 3.6 -0.2 0.3 -0.7 -1 -1.1 -2.7z"/>
  <path d="M243 555.5 c0 -1.9 0.5 -3.5 1 -3.5 0.6 0 1 -0.7 1 -1.5 0 -0.8 0.9 -1.5 2 -1.5 1.4 0 2 -0.7 2 -2.3 0 -3.1 2.9 -5.7 6.3 -5.7 2.2 0 2.7 -0.4 2.7 -2.6 0 -1.7 0.6 -2.8 2 -3.1 1.1 -0.3 2 -0.9 2 -1.4 0 -0.5 0.7 -0.9 1.5 -0.9 0.8 0 1.5 -0.4 1.5 -1 0 -0.5 1.6 -1 3.5 -1 1.9 0 3.5 0.3 3.5 0.8 0 0.4 -2.1 2 -4.7 3.7 -6.5 4.1 -16.7 13.8 -20 19.1 -1.5 2.4 -3.1 4.4 -3.5 4.4 -0.5 0 -0.8 -1.6 -0.8 -3.5z"/>
  <path d="M48.8 554.9 c-1.1 -1.8 -2.2 -2.7 -2.9 -2.3 -0.8 0.5 -0.9 0.3 -0.4 -0.6 0.6 -1 1.4 -0.7 3.2 1.4 1.2 1.5 2.3 3.1 2.3 3.7 0 1.5 -0.4 1.1 -2.2 -2.2z"/>
  <path d="M328.2 553.5 c0 -1.1 0.3 -2.9 0.8 -4 1.1 -2.5 1.1 0.1 0 3.5 -0.6 2 -0.8 2.1 -0.8 0.5z"/>
  <path d="M15.3 552.2 c-2.6 -0.3 -3.3 -0.9 -3.8 -3.2 -0.9 -4.1 1 -16.3 4 -25.9 2.3 -7.3 2.8 -8.1 4.8 -7.7 14.4 3 19.2 4.3 26.3 7.3 11.1 4.6 11.7 5.5 5.7 8.4 -6 3.1 -8.7 6.8 -8.8 12.2 -0.1 2.3 -0.9 5.4 -1.9 7 l-1.9 2.8 -10.6 -0.3 c-5.8 -0.2 -12 -0.4 -13.8 -0.6z"/>
  <path d="M358.7 550.5 c-1 -1.4 -1.9 -4.7 -2.1 -7.3 -0.3 -7.2 -2.9 -10.3 -11 -13.2 -2.3 -0.8 -2.6 -1.3 -1.7 -2.4 2.5 -3 22.3 -9.8 34.8 -12 l3.2 -0.5 3 9.2 c3.1 9.8 5.1 25.9 3.4 27 -0.6 0.4 -7 0.9 -14.4 1.2 l-13.4 0.6 -1.8 -2.6z"/>
  <path d="M115 549.2 c0 -0.6 -1.2 -2.5 -2.7 -4.4 -2.2 -2.7 -2.3 -2.9 -0.4 -1.3 2.7 2.3 4.5 5.4 3.7 6.3 -0.3 0.3 -0.6 0 -0.6 -0.6z"/>
  <path d="M286.4 546 c1.5 -1.9 3.9 -5.4 5.4 -7.6 4.9 -7.5 5.3 -8 2.7 -2.9 -1.4 2.8 -4.4 7 -6.7 9.5 -2.5 2.8 -3.1 3.2 -1.4 1z"/>
  <path d="M65 537.5 c-1.8 -3.6 -3.2 -6.6 -2.9 -6.8 0.2 -0.2 1.5 0 2.9 0.4 2.4 0.7 2.4 0.7 0.2 0.8 -2.2 0.1 -2.2 0.1 0.9 5.6 1.7 3.1 3 5.8 2.8 6 -0.3 0.2 -2 -2.5 -3.9 -6z"/>
  <path d="M336.4 533.9 c0.9 -1.4 1.3 -2.9 0.9 -3.2 -0.3 -0.4 -0.1 -0.7 0.5 -0.7 1.8 0 1.5 1.5 -0.9 4.1 l-2 2.4 1.5 -2.6z"/>
  <path d="M102.4 529.9 c-1.4 -2.8 -2.4 -5.3 -2.2 -5.5 0.2 -0.2 1.6 2.1 3.1 5.1 1.5 3 2.5 5.5 2.2 5.5 -0.3 0 -1.6 -2.3 -3.1 -5.1z"/>
  <path d="M390.1 526.7 c-1.2 -4.5 -2.5 -8.9 -2.8 -9.8 -0.3 -1 0.6 -2.2 2.4 -3.3 l2.8 -1.7 -2.3 2 -2.3 2 2.7 8.5 c1.4 4.7 2.4 8.9 2.3 9.5 -0.2 0.6 -1.5 -2.7 -2.8 -7.2z"/>
  <path d="M273 529.6 c0 -1.9 1 -2.7 5.6 -4.5 3.1 -1.1 7.3 -2.4 9.3 -2.7 3.5 -0.6 3.9 -1 5.4 -5.7 0.9 -2.8 1.5 -5.3 1.3 -5.5 -0.2 -0.2 -7.8 0.8 -16.8 2.2 -19.1 3 -22.8 3.2 -22.8 1.2 0 -1.6 1.5 -2 13.5 -3.6 4.4 -0.6 13.1 -2 19.4 -3.1 6.2 -1.1 11.6 -1.8 11.8 -1.5 0.7 0.7 -3.8 16.5 -5 17.4 -0.7 0.5 -3.4 1.6 -6.2 2.4 -2.7 0.9 -7.4 2.5 -10.2 3.7 l-5.3 2.1 0 -2.4z"/>
  <path d="M8.1 529.9 c-0.1 -1.8 2 -8.2 2.5 -7.7 0.2 0.2 -0.3 2.4 -1.1 4.8 -0.7 2.5 -1.4 3.8 -1.4 2.9z"/>
  <path d="M69.9 529.6 c1.4 -0.8 3.8 -3.6 5.3 -6.2 1.5 -2.7 2.8 -4.5 2.8 -4 0 0.5 -1.1 2.9 -2.5 5.2 -2.4 4 -5.1 6.5 -7.2 6.4 -0.4 -0.1 0.3 -0.7 1.6 -1.4z"/>
  <path d="M328.9 529.7 c-0.8 -0.7 -2.4 -2.5 -3.4 -4.2 -1.8 -3 -1.8 -3 0.9 0.2 1.5 1.8 3.5 3.7 4.4 4.3 0.9 0.5 1.3 0.9 0.7 0.9 -0.5 0 -1.7 -0.5 -2.6 -1.2z"/>
  <path d="M60.8 524.8 c-4.5 -2.6 -4.8 -3.8 -1.1 -3.8 3.2 0 9.3 2.1 9.3 3.2 0 0.6 -3.3 2.8 -4.2 2.8 -0.2 0 -2 -1 -4 -2.2z"/>
  <path d="M332.8 525.6 c-2.7 -1.3 -7 -9.2 -6.6 -12.1 0.2 -1.4 2.9 -3.3 8.8 -6.2 15.2 -7.7 28.2 -12 43.8 -14.8 8.3 -1.4 8.2 -1.5 9.7 6.9 0.6 3.2 0.5 3.6 -1.3 3.6 -1.6 0 -2.2 -0.9 -2.7 -3.9 l-0.6 -3.9 -7.7 1.8 c-10.4 2.3 -21.6 5.3 -22.2 6 -1.2 1.3 -6.3 3 -9 3 -1.8 0 -3 0.5 -3 1.3 0 1.4 -8 5.7 -10.6 5.7 -0.9 0 -1.4 0.3 -1.2 0.8 0.2 0.4 1 2.4 1.8 4.5 1.1 3 1.9 3.7 4.2 3.7 1.7 0 2.8 -0.5 2.8 -1.3 0 -1.6 4.1 -3.7 7 -3.7 1.1 0 2 -0.4 2 -0.9 0 -1.2 5.6 -3.1 9.1 -3.1 4.2 0 3.5 1.9 -1.3 3.8 -2.4 0.9 -8 3.5 -12.5 5.8 -7 3.5 -8.5 4 -10.5 3z"/>
  <path d="M299.7 524 c0.3 -1.4 1.2 -4.1 2 -6 1.1 -3 1.2 -3.1 0.8 -0.6 -0.4 1.6 -1.3 4.3 -2 6 -1.1 2.3 -1.3 2.5 -0.8 0.6z"/>
  <path d="M321.1 516.5 c-1.2 -3.1 -2.1 -6.1 -2 -6.8 0 -0.7 1.1 1.7 2.4 5.3 1.3 3.5 2.2 6.6 2 6.8 -0.1 0.2 -1.2 -2.2 -2.4 -5.3z"/>
  <path d="M70 517.8 c0 -3.2 -0.8 -4 -6.7 -6.7 -2.9 -1.4 -5.3 -3 -5.3 -3.8 0 -0.7 -1.1 -1.3 -2.6 -1.3 -1.4 0 -6.7 -1.5 -11.8 -3.4 -5 -1.9 -13.2 -4.3 -18.3 -5.4 l-9.1 -2 -0.7 4.9 c-0.4 2.6 -0.4 5.2 -0.1 5.7 0.3 0.5 4.3 1.5 8.8 2.2 10.7 1.5 16.8 3 16.8 4.1 0 0.5 1 0.9 2.3 0.9 4.6 0 6.7 1.2 6.7 3.6 l0 2.3 -6.9 -2.4 c-8.3 -2.9 -14.3 -4.3 -23.5 -5.5 -3.8 -0.5 -7.3 -1.4 -7.7 -2.2 -1.2 -1.8 -1 -7.4 0.4 -12.8 1.2 -4.5 1.2 -4.5 5.2 -4.2 12.5 1.1 41.9 11.3 53.1 18.4 4.4 2.7 4.4 2.8 3.1 6 -1.6 3.9 -3.7 4.8 -3.7 1.6z"/>
  <path d="M176 517 c0 -1.7 0.7 -2 4.3 -2 5.6 0 8.7 0.9 8.7 2.6 0 1.1 -1.6 1.4 -6.5 1.4 -5.8 0 -6.5 -0.2 -6.5 -2z"/>
  <path d="M214 517.6 c0 -1.7 3.1 -2.6 9.3 -2.6 4 0 4.7 0.3 4.7 2 0 1.8 -0.7 2 -7 2 -5.3 0 -7 -0.3 -7 -1.4z"/>
  <path d="M12 517.1 c0 -0.7 -1.1 -2.2 -2.5 -3.3 -1.4 -1.1 -2.5 -2.5 -2.4 -3.1 0 -0.8 0.3 -0.7 0.6 0.1 0.3 0.8 1.8 2.1 3.3 3.1 2.1 1.2 2.6 2.1 1.9 3.1 -0.7 1.2 -0.9 1.2 -0.9 0.1z"/>
  <path d="M78.2 517.5 c0 -0.5 0.6 -2.6 1.3 -4.5 0.7 -1.9 1.4 -2.8 1.4 -2 0 0.8 -0.6 2.9 -1.4 4.5 -0.7 1.7 -1.3 2.6 -1.3 2z"/>
  <path d="M158 516 c0 -1.6 0.7 -2 3.3 -2 4.7 0 7.7 1 7.7 2.6 0 1 -1.5 1.4 -5.5 1.4 -4.8 0 -5.5 -0.2 -5.5 -2z"/>
  <path d="M233 516.6 c0 -1.5 3 -2.6 7.3 -2.6 2 0 2.7 0.5 2.7 2 0 1.7 -0.7 2 -5 2 -3.6 0 -5 -0.4 -5 -1.4z"/>
  <path d="M96.5 514 c-0.4 -1.7 -0.5 -3.4 -0.2 -3.6 0.2 -0.3 0.7 1 1.1 2.7 0.8 4.2 0 5 -0.9 0.9z"/>
  <path d="M245 515.6 c0 -1.4 2.9 -2.6 6.8 -2.6 1.5 0 2.2 0.6 2.2 2 0 1.7 -0.7 2 -4.5 2 -3.2 0 -4.5 -0.4 -4.5 -1.4z"/>
  <path d="M362 512.1 c0 -1.9 2.3 -2.5 17.3 -4.7 2.6 -0.3 5 -1 5.3 -1.5 1.1 -1.8 4.4 -1 4.4 1.1 0 2.5 -2.8 4 -7.7 4 -2.1 0.1 -6.7 0.7 -10.3 1.5 -8.5 1.9 -9 1.8 -9 -0.4z"/>
  <path d="M189.8 511.3 c-1 -0.2 -1.8 -1.1 -1.8 -1.9 0 -1.1 2.4 -1.4 13 -1.4 10.4 0 13 0.3 13 1.4 0 0.7 -1 1.6 -2.2 2 -2.6 0.7 -19.4 0.6 -22 -0.1z"/>
  <path d="M167.8 510.3 c-1 -0.2 -1.8 -1.1 -1.8 -1.9 0 -1 1.3 -1.4 5 -1.4 4.3 0 5 0.3 5 2 0 1.6 -0.6 2 -3.2 1.9 -1.8 -0.1 -4.1 -0.3 -5 -0.6z"/>
  <path d="M183.2 471.1 l0.3 -39.9 2.5 -2.7 c2.2 -2.4 7 -5.5 8.5 -5.5 0.3 0 0.5 1.1 0.5 2.4 0 2.4 -1.6 3.6 -5 3.6 -2.7 0 -3 4 -3 44.8 0 36.8 0 37.2 -2 37.2 -2.1 0 -2.1 -0.3 -1.8 -39.9z"/>
  <path d="M225 509 c0 -1.7 0.7 -2 5 -2 3.6 0 5 0.4 5 1.4 0 1.5 -3 2.6 -7.2 2.6 -2.1 0 -2.8 -0.5 -2.8 -2z"/>
  <path d="M154.8 509.3 c-1 -0.2 -1.8 -1.1 -1.8 -1.9 0 -1 1.3 -1.4 5 -1.4 4.3 0 5 0.3 5 2 0 1.6 -0.6 2 -3.2 1.9 -1.8 -0.1 -4.1 -0.3 -5 -0.6z"/>
  <path d="M238 508 c0 -1.7 0.7 -2 4.5 -2 4.9 0 6.4 2.3 2.3 3.4 -4.5 1.2 -6.8 0.7 -6.8 -1.4z"/>
  <path d="M304.2 507 c0 -1.9 0.2 -2.7 0.5 -1.7 0.2 0.9 0.2 2.5 0 3.5 -0.3 0.9 -0.5 0.1 -0.5 -1.8z"/>
  <path d="M6.3 504 c0 -3 0.2 -4.3 0.4 -2.7 0.2 1.5 0.2 3.9 0 5.5 -0.2 1.5 -0.4 0.2 -0.4 -2.8z"/>
  <path d="M95.3 505.5 c0 -2.2 0.2 -3 0.4 -1.7 0.2 1.2 0.2 3 0 4 -0.3 0.9 -0.5 -0.1 -0.4 -2.3z"/>
  <path d="M139.5 507.8 c-15.7 -2 -38.1 -6.1 -39.4 -7.1 -3.4 -2.8 2.2 -46.5 11.9 -91.2 2.2 -10.4 4.8 -22.4 5.6 -26.5 0.9 -4.1 1.9 -7.8 2.2 -8.1 0.5 -0.5 18.1 1.1 23 2.1 0.1 0 0.2 0.7 0.2 1.6 0 1.6 -2 1.6 -18.4 0.1 -1.7 -0.2 -2.4 2.1 -6.2 19.3 -8.6 38.7 -14.1 70.9 -15.1 88.1 l-0.6 11.7 5.4 1.1 c8.9 1.9 28.4 5 36.4 5.7 6.4 0.6 7.5 0.9 7.5 2.5 0 2.1 -1.2 2.2 -12.5 0.7z"/>
  <path d="M249 507.3 c0 -1.7 1.3 -2.1 11.6 -3.2 9.9 -1.1 25.9 -3.7 34.2 -5.6 1.4 -0.3 2.2 -1.3 2.2 -2.5 0 -1.4 0.7 -2 2.1 -2 1.7 0 2 0.5 1.7 3.7 l-0.3 3.8 -6.5 1.2 c-9.2 1.7 -31.3 5 -38.7 5.8 -5.8 0.6 -6.3 0.5 -6.3 -1.2z"/>
  <path d="M392.2 496.4 c-0.6 -3.2 -1 -5.9 -0.8 -6.1 0.6 -0.6 2.8 9.5 2.4 10.8 -0.2 0.6 -0.9 -1.5 -1.6 -4.7z"/>
  <path d="M7.2 496.5 c0 -1.1 0.3 -2.9 0.8 -4 1.1 -2.5 1.1 0.1 0 3.5 -0.6 2 -0.8 2.1 -0.8 0.5z"/>
  <path d="M297 488.2 c0 -12.9 -6.6 -51.2 -16.7 -97.5 l-2.8 -12.8 -2.8 0.5 c-1.5 0.3 -6.3 0.9 -10.7 1.2 -6.9 0.6 -8 0.5 -8 -0.9 0 -1 1.1 -1.8 3.3 -2.1 8.4 -1.2 21 -2.7 21.2 -2.4 0.5 0.6 9.6 43.9 12.4 58.8 3.9 20.8 6.9 40.6 7.7 51.3 0.7 8.4 0.6 8.7 -1.5 8.7 -1.9 0 -2.1 -0.6 -2.1 -4.8z"/>
  <path d="M85.2 487 c0 -1.9 0.2 -2.7 0.5 -1.7 0.2 0.9 0.2 2.5 0 3.5 -0.3 0.9 -0.5 0.1 -0.5 -1.8z"/>
  <path d="M314.3 485.5 c0 -2.2 0.2 -3 0.4 -1.7 0.2 1.2 0.2 3 0 4 -0.3 0.9 -0.5 -0.1 -0.4 -2.3z"/>
  <path d="M95.3 480.5 c0 -2.2 0.2 -3 0.4 -1.7 0.2 1.2 0.2 3 0 4 -0.3 0.9 -0.5 -0.1 -0.4 -2.3z"/>
  <path d="M12.5 479.1 c1.2 -3.9 3.5 -9.1 4 -9.1 0.5 0 -3.4 10.2 -4.2 11 -0.3 0.3 -0.2 -0.6 0.2 -1.9z"/>
  <path d="M304.3 476.5 c0 -2.7 0.2 -3.8 0.4 -2.2 0.2 1.5 0.2 3.7 0 5 -0.2 1.2 -0.4 0 -0.4 -2.8z"/>
  <path d="M384.2 472.8 c-1.7 -3.9 -3 -7.3 -2.9 -7.5 0.2 -0.2 1.9 2.9 3.7 6.7 1.7 3.9 3 7.3 2.8 7.5 -0.2 0.2 -1.8 -2.8 -3.6 -6.7z"/>
  <path d="M96.2 469.5 c0 -1.6 0.3 -5 0.7 -7.5 0.6 -3.3 0.9 -3.7 0.9 -1.5 0 1.7 -0.3 5 -0.7 7.5 -0.6 3.3 -0.9 3.7 -0.9 1.5z"/>
  <path d="M303.2 468 c0 -1.9 0.2 -2.7 0.5 -1.7 0.2 0.9 0.2 2.5 0 3.5 -0.3 0.9 -0.5 0.1 -0.5 -1.8z"/>
  <path d="M20 462 c1.7 -3.3 3.3 -6 3.5 -6 0.3 0 -0.8 2.7 -2.5 6 -1.7 3.3 -3.3 6 -3.5 6 -0.3 0 0.8 -2.7 2.5 -6z"/>
  <path d="M314.1 463.7 c-0.1 -1 0.6 -3.1 1.4 -4.8 1.2 -2.2 1.3 -3.4 0.5 -5.2 -1.1 -2.1 -1 -2.1 0.4 -0.3 1.8 2.3 2 4.2 0.6 5.1 -0.5 0.3 -1.4 2 -1.9 3.8 -0.5 1.8 -1 2.4 -1 1.4z"/>
  <path d="M377.5 459 c-1.4 -2.7 -2.3 -5 -2 -5 0.2 0 1.6 2.3 3 5 1.4 2.8 2.3 5 2 5 -0.2 0 -1.6 -2.2 -3 -5z"/>
  <path d="M63 460.9 c-4.6 -1.9 -6 -3.9 -6 -8.8 0 -2.6 -0.7 -7.3 -1.5 -10.4 l-1.5 -5.7 5.7 -10.3 c3.1 -5.6 5.8 -10.4 6.1 -10.7 0.2 -0.3 1 0.4 1.8 1.5 3.6 5.1 10.9 11.4 15.7 13.6 2.9 1.3 5.3 2.4 5.5 2.5 0.6 0.3 -14.1 27.9 -15.2 28.6 -1.5 1.1 -7.6 0.9 -10.6 -0.3z"/>
  <path d="M325.8 460.3 c-1.4 -1.7 -15 -27.6 -14.5 -27.7 0.1 -0.1 3.2 -1.6 6.9 -3.4 6.2 -3.1 11.5 -8 14.5 -13.6 1.1 -2.1 1.3 -1.8 9.7 13.8 3.5 6.5 3.7 7.2 2.6 11 -0.6 2.3 -1.4 7 -1.8 10.6 -0.6 5.9 -1 6.6 -4.1 8.7 -4.2 2.9 -11.1 3.1 -13.3 0.6z"/>
  <path d="M373.4 451.8 c-0.4 -0.7 -1.4 -2.4 -2.2 -3.8 -1.4 -2.4 -1.3 -2.4 0.3 -0.5 2 2.4 3.7 5.5 3.1 5.5 -0.3 0 -0.8 -0.6 -1.2 -1.2z"/>
  <path d="M99.2 449 c0 -1.9 0.2 -2.7 0.5 -1.7 0.2 0.9 0.2 2.5 0 3.5 -0.3 0.9 -0.5 0.1 -0.5 -1.8z"/>
  <path d="M87.5 446 c1.4 -2.7 2.8 -5 3 -5 0.3 0 -0.6 2.3 -2 5 -1.4 2.8 -2.8 5 -3 5 -0.3 0 0.6 -2.2 2 -5z"/>
  <path d="M28.7 446.9 c3.4 -5.8 12.6 -14.8 15.8 -15.4 l3 -0.5 -3 1.1 c-3.9 1.5 -8.7 6 -13.2 12.6 -4 5.9 -5.4 7 -2.6 2.2z"/>
  <path d="M299.1 443.1 c-1.5 -9.2 -1.5 -9.1 1.2 -9 1.8 0.1 1.9 0.2 0.4 0.6 -1.5 0.4 -1.8 1.1 -1.3 3.6 1.3 7.5 1.8 11.7 1.4 11.7 -0.3 0 -1 -3.1 -1.7 -6.9z"/>
  <path d="M100.2 443 c0 -1.4 0.4 -3.8 0.8 -5.5 0.7 -2.7 0.8 -2.7 0.8 -0.5 0 1.4 -0.4 3.9 -0.8 5.5 -0.7 2.7 -0.8 2.7 -0.8 0.5z"/>
  <path d="M365.6 440.3 c-2 -2.6 -4.9 -5.5 -6.4 -6.5 -1.5 -1 -2.1 -1.8 -1.4 -1.8 1.3 0 9.7 8.3 11.3 11.3 1.7 3 0.3 1.8 -3.5 -3z"/>
  <path d="M308.5 440 c-1 -2.3 -2.6 -4.5 -3.4 -5.1 -1.3 -0.8 -1.3 -0.9 -0.1 -0.6 1.5 0.4 6.6 8.5 5.8 9.3 -0.3 0.2 -1.3 -1.4 -2.3 -3.6z"/>
  <path d="M173 429.1 c0 -1.5 0.5 -4.2 1.1 -6 0.9 -2.5 1.7 -3.1 3.9 -3.1 l2.7 0 -2.3 4.7 c-1.3 2.5 -2.4 5.2 -2.4 6 0 0.7 -0.7 1.3 -1.5 1.3 -1 0 -1.5 -1 -1.5 -2.9z"/>
  <path d="M54.5 424 c0.9 -1.6 1.8 -3 2.1 -3 0.2 0 -0.2 1.4 -1.1 3 -0.9 1.7 -1.8 3 -2.1 3 -0.2 0 0.2 -1.3 1.1 -3z"/>
  <path d="M344 423 c-1.1 -2.2 -1.8 -4 -1.5 -4 0.2 0 1.4 1.8 2.5 4 1.1 2.2 1.8 4 1.5 4 -0.2 0 -1.4 -1.8 -2.5 -4z"/>
  <path d="M200 421 c0 -0.9 11.1 -6.9 16.6 -9 2.1 -0.8 2.4 -0.7 2.4 1.3 0 1.8 -1.4 2.9 -6.5 5.5 -6.4 3.1 -12.5 4.2 -12.5 2.2z"/>
  <path d="M58.5 417 c0.9 -1.6 1.8 -3 2.1 -3 0.2 0 -0.2 1.4 -1.1 3 -0.9 1.7 -1.8 3 -2.1 3 -0.2 0 0.2 -1.3 1.1 -3z"/>
  <path d="M183 416.5 c0 -0.8 -0.9 -1.5 -2 -1.5 -2.9 0 -15 -6.2 -15 -7.7 0 -0.8 -1.2 -1.3 -3 -1.3 -4.6 0 -8 -2 -8 -4.6 0 -2.8 -0.8 -3.1 17.9 5.8 14.2 6.7 14.4 6.8 12.6 8.8 -2.2 2.4 -2.5 2.5 -2.5 0.5z"/>
  <path d="M338.6 413.2 c-2 -3.9 -2.3 -5.4 -1.5 -8.2 l0.8 -3.5 -0.3 3.5 c-0.2 2.3 0.5 5.2 2 8.3 1.4 2.6 2.2 4.7 1.9 4.7 -0.2 0 -1.6 -2.2 -2.9 -4.8z"/>
  <path d="M61.8 411.5 c0.5 -1.1 1.2 -2.7 1.5 -3.5 0.5 -1.3 0.6 -1.3 0.6 0.1 0.1 0.8 -0.6 2.4 -1.5 3.5 -1.5 1.9 -1.5 1.9 -0.6 -0.1z"/>
  <path d="M221.2 410.8 c0.3 -0.7 8.2 -4.9 17.6 -9.3 9.4 -4.4 17.3 -8.3 17.7 -8.6 0.3 -0.3 -1.3 -3.6 -3.5 -7.2 -2.2 -3.7 -4 -7.1 -4 -7.7 0 -0.5 1.3 -1 2.8 -1 2.4 0 2.9 0.6 4.1 4.4 0.7 2.5 1.7 4.6 2.2 4.8 0.5 0.2 1.2 2.5 1.5 5.1 0.8 5.6 -0.1 6.7 -5.3 6.7 -2 0 -3.3 0.5 -3.3 1.3 0 1.5 -8.1 5.7 -10.9 5.7 -1.1 0 -2.1 0.4 -2.3 0.9 -0.1 0.5 -2.6 2 -5.5 3.5 -5.6 2.8 -11.8 3.5 -11.1 1.4z"/>
  <path d="M180.7 382.2 l-16.9 -19.7 5.9 -0.3 c7.5 -0.4 12.3 0.5 12.3 2.3 0 1.1 -1.4 1.5 -5.5 1.5 -4.2 0 -5.5 0.3 -5.5 1.5 0 0.9 0.9 1.5 2.3 1.5 2.9 0 4.7 1.8 4.7 4.7 0 1.5 0.6 2.3 1.8 2.3 2.5 0 4.2 1.9 4.2 4.7 0 1.5 0.6 2.3 1.8 2.3 2.5 0 4.2 1.9 4.2 4.7 0 1.6 0.6 2.3 1.9 2.3 1 0 3.3 1.6 5 3.5 3.9 4.5 6.1 4.6 6.1 0.2 0 -4.3 3.7 -8 7.6 -7.5 2.7 0.3 2.7 0.4 -4.1 7.8 -3.8 4.1 -7.4 7.6 -8 7.7 -0.5 0.1 -8.6 -8.6 -17.8 -19.5z"/>
  <path d="M140 392 c0 -2.7 0.4 -5 0.8 -5 0.4 0 1.6 -2.2 2.7 -5 1.5 -3.8 2.4 -5 4.1 -5 1.1 0 2.3 0.3 2.6 0.6 0.6 0.5 -5.1 11.4 -7.3 14 -0.6 0.7 0 1.5 1.6 2.2 3.6 1.6 3.1 3.2 -1 3.2 l-3.5 0 0 -5z"/>
  <path d="M337.6 393.8 c-0.3 -1.3 -0.5 -3.2 -0.5 -4.3 0.1 -1.1 0.5 -0.2 1 1.9 1 4.2 0.6 6.2 -0.5 2.4z"/>
  <path d="M62.1 390.9 c-0.1 -1.8 2 -8.2 2.5 -7.7 0.2 0.2 -0.3 2.4 -1.1 4.8 -0.7 2.5 -1.4 3.8 -1.4 2.9z"/>
  <path d="M215 380.9 c0 -4.6 3.5 -8.2 7.6 -7.7 l2.8 0.3 -5.2 5.5 -5.1 5.5 -0.1 -3.6z"/>
  <path d="M66.9 378.5 c1.3 -2.5 4.7 -6.4 8.6 -9.5 1.7 -1.4 0.9 -0.2 -1.8 2.5 -2.6 2.8 -5.4 5.9 -6.3 7 l-1.5 2 1 -2z"/>
  <path d="M329.6 374.7 c-2.2 -2.9 -2.8 -4.3 -1.5 -3 2.1 1.9 6.5 8.3 5.7 8.3 -0.2 0 -2 -2.4 -4.2 -5.3z"/>
  <path d="M226 369.2 c0 -2.5 -0.4 -3.2 -2 -3.2 -2.7 0 -2.5 -2.6 0.3 -3.4 3.2 -0.8 10.7 -0.7 10.7 0.2 0 0.4 -2 2.8 -4.5 5.2 l-4.5 4.4 0 -3.2z"/>
  <path d="M201 365 c0 -1.6 0.7 -2 3.5 -2 2.8 0 3.5 0.4 3.5 2 0 1.6 -0.7 2 -3.5 2 -2.8 0 -3.5 -0.4 -3.5 -2z"/>
  <path d="M117.3 359.3 c0.1 -1.8 0.5 -3.3 1 -3.3 0.9 0 0.8 1.9 -0.3 4.5 -0.7 1.6 -0.8 1.4 -0.7 -1.2z"/>
  <path d="M182.8 358.3 c-1 -0.2 -1.8 -1.1 -1.8 -1.9 0 -1.2 3.4 -1.4 20.5 -1.4 16.8 0 20.5 0.3 20.5 1.4 0 0.7 -1 1.6 -2.2 2 -2.6 0.7 -34.4 0.6 -37 -0.1z"/>
  <path d="M161.8 357.3 c-1 -0.2 -1.8 -1.1 -1.8 -1.9 0 -1.1 1.5 -1.4 6 -1.4 5.3 0 6 0.2 6 2 0 1.7 -0.6 2 -4.2 1.9 -2.4 -0.1 -5.1 -0.3 -6 -0.6z"/>
  <path d="M231 356 c0 -1.8 0.7 -2 5.5 -2 4 0 5.5 0.4 5.5 1.4 0 1.6 -3 2.6 -7.7 2.6 -2.6 0 -3.3 -0.4 -3.3 -2z"/>
  <path d="M149.8 356.3 c-1 -0.2 -1.8 -1.1 -1.8 -1.9 0 -1 1.3 -1.4 4.5 -1.4 3.8 0 4.5 0.3 4.5 2 0 1.5 -0.6 2 -2.7 1.9 -1.6 -0.1 -3.6 -0.3 -4.5 -0.6z"/>
  <path d="M244 355 c0 -1.6 0.7 -2 3.5 -2 7.7 0 26.4 -3.3 37.3 -6.6 6.5 -1.9 12.9 -3.8 14.5 -4.1 1.5 -0.3 2.7 -0.9 2.7 -1.3 0 -1 4.7 -3 7 -3 1.1 0 2 -0.7 2 -1.5 0 -0.8 0.7 -1.5 1.5 -1.5 0.8 0 1.5 -0.4 1.5 -1 0 -0.5 0.9 -1 2 -1 1.1 0 2 -0.7 2 -1.5 0 -1.1 1.1 -1.5 3.6 -1.5 3.1 0 3.5 0.2 2.4 1.5 -2.4 2.8 -14.7 10.5 -22 13.5 -10 4.3 -27.2 8.6 -41.8 10.4 -15.9 2 -16.2 2 -16.2 -0.4z"/>
  <path d="M111.5 355 c-1.3 -0.5 -1.4 -0.9 -0.5 -0.9 0.8 0 2.4 0.4 3.5 0.9 1.3 0.5 1.4 0.9 0.5 0.9 -0.8 0 -2.4 -0.4 -3.5 -0.9z"/>
  <path d="M133.3 354.5 c-12.5 -2 -25.3 -5.6 -25.3 -7.2 0 -1.9 3.5 -1.6 15 1.1 5.5 1.4 13.2 2.8 17 3.2 5.9 0.6 7 0.9 7 2.5 0 2.2 -1.6 2.3 -13.7 0.4z"/>
  <path d="M292.9 352.9 c3 -1 5.6 -1.7 5.8 -1.5 0.5 0.5 -8.6 3.6 -10.1 3.5 -0.6 0 1.3 -0.9 4.3 -2z"/>
  <path d="M97.5 350.1 c-2.2 -1.1 -3.5 -1.9 -3 -1.9 1.4 -0.1 9.3 3.6 8 3.7 -0.5 0 -2.8 -0.8 -5 -1.8z"/>
  <path d="M310.5 345.7 c15 -8.1 24.8 -17.7 31.6 -31 2.4 -4.7 4.5 -8.4 4.7 -8.2 0.2 0.2 -1.6 4.1 -3.9 8.6 -6.7 12.9 -18.9 24.8 -32.6 31.8 -6.6 3.3 -6.5 2.4 0.2 -1.2z"/>
  <path d="M101.9 346.5 c-5.6 -2 -9.9 -4.5 -9.9 -5.5 0 -1.6 5.1 -1.2 9.7 0.8 3.3 1.3 4.3 2.2 4.3 4 0 1.2 -0.1 2.2 -0.2 2.1 -0.2 0 -1.9 -0.6 -3.9 -1.4z"/>
  <path d="M78.7 339.9 c-3.2 -2.2 -5.7 -4.2 -5.7 -4.5 0 -0.5 9 5.6 11.5 7.8 2.5 2.2 -0.8 0.4 -5.8 -3.3z"/>
  <path d="M81.9 335.8 c-11.2 -8.1 -20.1 -20.3 -24.9 -34.2 -1.9 -5.5 -1.7 -9.6 0.4 -9.6 1.1 0 5.6 13.1 5.6 16.3 0 0.9 0.7 1.7 1.5 1.7 0.8 0 1.7 1.1 2.1 2.5 0.3 1.4 1 2.5 1.5 2.5 0.5 0 0.9 0.7 0.9 1.5 0 0.8 0.5 1.5 1 1.5 0.6 0 1 0.8 1 1.8 0 0.9 1 2.2 2.3 2.7 1.2 0.6 2.3 2 2.5 3.3 0.2 1.4 1 2.2 2.4 2.2 1.1 0 2.2 0.8 2.5 2 0.3 1.1 1.4 2 2.4 2 1.2 0 1.9 0.7 1.9 2 0 1.6 0.7 2 3 2 2.5 0 3 0.4 3 2.5 0 1.4 -0.4 2.5 -0.9 2.5 -0.5 0 -4.2 -2.4 -8.2 -5.2z"/>
  <path d="M180 333 c0 -1.9 0.7 -2 19.5 -2 18.8 0 19.5 0.1 19.5 2 0 1.9 -0.7 2 -19.5 2 -18.8 0 -19.5 -0.1 -19.5 -2z"/>
  <path d="M160 332 c0 -1.6 0.7 -2 3.3 -2 4.7 0 7.7 1 7.7 2.6 0 1 -1.5 1.4 -5.5 1.4 -4.8 0 -5.5 -0.2 -5.5 -2z"/>
  <path d="M227 332.6 c0 -1.6 3 -2.6 8.3 -2.6 3 0 3.7 0.4 3.7 2 0 1.8 -0.7 2 -6 2 -4.4 0 -6 -0.4 -6 -1.4z"/>
  <path d="M139.4 331.5 c-12.2 -1.8 -27.4 -5.4 -27.4 -6.6 0 -0.5 -0.9 -0.9 -2 -0.9 -2.4 0 -9 -3.1 -9 -4.2 0 -0.4 -0.7 -0.8 -1.5 -0.8 -0.8 0 -1.5 -0.6 -1.5 -1.4 0 -0.8 -1 -1.6 -2.2 -1.8 -1.8 -0.2 -2.4 -1.1 -2.6 -3.5 -0.3 -2.9 -0.7 -3.3 -3.3 -3.3 -2.6 0 -2.9 -0.3 -2.9 -3 0 -2.2 -0.5 -3 -1.8 -3 -3.1 0 -7.5 -11.5 -9.7 -25.5 -1.9 -11.6 -1.9 -15.5 0 -15.5 0.8 0 1.6 1.3 1.9 3.3 0.3 1.7 1 6.4 1.6 10.2 5 32.4 23.4 47.7 63 52.4 14.8 1.8 16 2.1 16 3.6 0 1.9 -5.7 1.8 -18.6 0z"/>
  <path d="M242 331.5 c0 -1.5 1.2 -1.8 16 -3.6 19.1 -2.3 34.2 -7.3 43.1 -14.4 4.1 -3.2 4.4 -3.3 4.7 -1.4 0.5 3.1 -0.5 4.9 -2.8 4.9 -1.1 0 -2 0.6 -2 1.4 0 1.6 -2.1 2.6 -5.6 2.6 -1.4 0 -2.4 0.6 -2.4 1.4 0 2.6 -15 6.7 -33.3 9.1 -14.9 1.9 -17.7 1.9 -17.7 0z"/>
  <path d="M64.3 325.8 c-3.7 -4.9 -6.3 -9 -5.1 -7.8 0.3 0.3 2.3 2.8 4.3 5.5 2.1 2.8 4.2 5.6 4.8 6.3 0.5 0.6 0.7 1.2 0.4 1.2 -0.2 0 -2.2 -2.4 -4.4 -5.2z"/>
  <path d="M327 324.6 c0 -2.3 0.5 -3.9 1.5 -4.2 0.8 -0.4 1.5 -1.2 1.5 -2 0 -0.8 0.5 -1.4 1 -1.4 0.6 0 1 -0.7 1 -1.5 0 -0.8 0.4 -1.5 0.8 -1.5 0.4 0 1.4 -1.6 2.1 -3.5 0.7 -1.9 1.8 -4 2.4 -4.7 1.8 -1.9 3.7 -10.1 3.7 -15.8 0 -3.6 0.4 -5 1.4 -5 1.6 0 2.6 3.1 2.6 8.5 0 7.3 -10.3 28.4 -16.4 33.4 -1.4 1.2 -1.6 0.9 -1.6 -2.3z"/>
  <path d="M52.4 304.3 c-1 -2.6 -2.3 -5.2 -2.8 -5.6 -0.7 -0.6 -0.6 -0.7 0.3 -0.5 1.3 0.4 5.5 9.8 4.7 10.6 -0.2 0.2 -1.2 -1.8 -2.2 -4.5z"/>
  <path d="M311.4 302.6 c5 -7.3 8.1 -15.8 9.6 -26.6 0.6 -4.1 1.3 -9 1.6 -10.7 0.3 -2 1.1 -3.3 1.9 -3.3 1.9 0 1.9 3.7 0 16.1 -1.4 9.8 -5.6 23.1 -7.5 23.7 -0.5 0.2 -1 1 -1 1.8 0 0.8 -0.4 1.4 -0.9 1.4 -0.5 0 -1.1 0.9 -1.4 2 -0.4 1.5 -1.4 2 -3.6 2 l-3.1 0 4.4 -6.4z"/>
  <path d="M348.4 300.1 c0.1 -1.2 9.5 -5.5 10.4 -4.6 0.2 0.2 -1.9 1.2 -4.7 2.1 -2.8 1 -5.2 2.3 -5.4 2.9 -0.2 0.5 -0.3 0.4 -0.3 -0.4z"/>
  <path d="M38.3 294 c-2.8 -1.6 -5.5 -3.5 -5.9 -4.2 -0.6 -1.1 -0.5 -1.1 0.8 0 0.8 0.7 4 2.6 6.9 4.2 3 1.6 5 3 4.4 3 -0.5 0 -3.3 -1.4 -6.2 -3z"/>
  <path d="M365.2 291.1 c2.1 -1.8 5.1 -4.8 6.9 -6.9 1.7 -2 2.7 -2.8 2.1 -1.7 -1.4 2.8 -7.8 9.2 -10.5 10.6 -1.2 0.6 -0.5 -0.3 1.5 -2z"/>
  <path d="M26 282.3 c-1.7 -2.6 -3 -5.2 -3 -5.7 0 -0.6 1.2 0.9 2.6 3.4 1.4 2.5 3 5.1 3.6 5.7 0.6 0.7 0.8 1.3 0.4 1.3 -0.4 0 -2 -2.1 -3.6 -4.7z"/>
  <path d="M124.8 281.6 c-20.1 -5.8 -32.6 -26.3 -28.4 -46.6 1.9 -9 5.8 -16.1 11.9 -21.6 16.7 -15 40.7 -14.1 55.6 2.2 9 9.9 12.4 21 10.3 33.5 -3.3 19.1 -18.1 32.5 -36.8 33.5 -4.9 0.2 -9.7 -0.2 -12.6 -1z m24.3 -6.4 c8.4 -4.2 14 -9.7 17.9 -17.6 4.4 -8.9 5 -16.3 2 -25.6 -1.2 -3.8 -2.6 -7 -3.1 -7 -0.5 0 -0.9 -0.7 -0.9 -1.5 0 -0.8 -0.4 -1.5 -1 -1.5 -0.5 0 -1 -1.6 -1 -3.5 0 -3.3 -0.2 -3.5 -3.2 -3.5 l-3.2 0 2.7 2.8 c1.5 1.5 2.7 3.3 2.7 4 0 0.7 0.4 1.2 0.8 1.2 1.5 0 4.4 7.4 4.9 12.7 0.5 4.3 0.3 5.3 -0.9 5.3 -1 0 -2 -1.7 -2.7 -4.6 -1.8 -7.1 -4.6 -11.8 -9.6 -16.2 -15.1 -13.3 -37.9 -7.9 -46.5 11.1 -2.6 5.7 -2.7 17.6 -0.1 23.3 3.9 8.5 11.9 15.1 21.4 17.5 6.1 1.5 6.4 3.9 0.5 3.9 -4.2 0 -14.8 -4.1 -14.8 -5.7 0 -0.5 -1 -1.3 -2.2 -1.8 -1.3 -0.6 -2.4 -2 -2.6 -3.2 -0.2 -1.3 -1 -2.3 -1.8 -2.3 -0.8 0 -2.5 -2.1 -3.7 -4.7 -1.8 -4 -2.2 -6.6 -2.2 -15.8 0 -9.6 0.3 -11.6 2.4 -15.5 3 -5.9 5 -8 7.3 -8 1.1 0 1.8 -0.7 1.8 -2.1 0 -1.5 1.5 -2.7 5.8 -4.7 4.8 -2.2 7.1 -2.6 14.7 -2.7 8.4 0 17.5 1.8 17.5 3.5 0 0.4 0.9 1 1.9 1.3 4.3 1.1 0.7 -1.9 -5.2 -4.5 -9.9 -4.2 -13.9 -4.4 -23.5 -1.2 -4.5 1.4 -8.2 3.1 -8.2 3.5 0 0.5 -0.6 0.9 -1.3 0.9 -0.7 0 -1.8 0.9 -2.5 2 -0.7 1.1 -1.9 2 -2.7 2 -0.8 0 -1.5 0.6 -1.5 1.4 0 0.8 -0.8 2.1 -1.8 2.8 -2.5 1.9 -7 12.4 -7.8 18.5 -0.7 6 2.4 18.1 5.7 21.6 1 1.1 1.9 3.1 1.9 4.4 0 1.6 0.6 2.3 2 2.3 1.1 0 2.3 0.7 2.6 1.5 0.4 0.8 1.1 1.5 1.6 1.5 0.5 0 2.4 1 4.1 2.2 9.3 6.6 21.1 7.4 31.8 2z"/>
  <path d="M137 274.6 c0 -0.8 1.4 -1.8 3.3 -2.1 11.4 -2.5 21.4 -12.3 23.8 -23.5 0.7 -3.4 1.6 -5 2.6 -5 2.3 0 1.3 9.6 -1.6 15.1 -2.6 4.9 -8 10.9 -9.8 10.9 -0.7 0 -1.3 0.4 -1.3 0.9 0 0.5 -2.2 1.8 -4.9 3 -5.8 2.5 -12.1 2.8 -12.1 0.7z"/>
  <path d="M145 239.5 c0 -3.9 1.4 -4.6 3 -1.6 1.6 3.1 1.2 5.1 -1 5.1 -1.6 0 -2 -0.7 -2 -3.5z"/>
  <path d="M254.8 281.5 c-6.5 -1.8 -12.4 -5.4 -18.1 -11.1 -11.6 -11.7 -14.6 -29.8 -7.4 -45.3 2.9 -6.4 12.4 -15.6 19.1 -18.7 32.2 -14.7 66.3 17.4 53.7 50.7 -7.2 18.8 -28.2 29.7 -47.3 24.4z m24.4 -6.3 c6.2 -3 13.8 -9.3 13.8 -11.3 0 -0.4 0.6 -1.2 1.3 -1.6 0.7 -0.4 2.4 -3.3 3.7 -6.3 3.6 -8.2 3.4 -18.3 -0.5 -27 -1.6 -3.6 -3.7 -7.1 -4.7 -7.8 -1 -0.7 -1.8 -2.2 -1.8 -3.3 0 -1.1 -0.7 -1.9 -1.6 -1.9 -0.8 0 -3 -1.1 -4.8 -2.5 -6 -4.5 -12.6 -6.9 -19.7 -6.9 -5.5 0 -7.8 0.6 -13.5 3.4 -3.8 1.8 -7.3 3.9 -7.7 4.7 -0.4 0.7 -1.9 1.3 -3.2 1.3 -2 0 -2.5 0.5 -2.5 2.5 0 1.3 -0.6 2.8 -1.3 3.2 -2.1 1.3 -6.7 12.8 -7.4 18.2 -0.7 6.3 1.1 13.8 4.8 19.6 1.6 2.5 2.9 5.2 2.9 6 0 0.8 0.7 1.5 1.5 1.5 0.8 0 1.5 0.9 1.5 2 0 1.5 0.7 2 2.5 2 1.3 0 2.8 0.6 3.2 1.3 0.4 0.8 3.7 2.6 7.3 4.1 9 3.7 17 3.3 26.2 -1.2z"/>
  <path d="M250.8 273.8 c-2.7 -1.1 -4.8 -2.4 -4.8 -2.9 0 -0.5 -0.6 -0.9 -1.4 -0.9 -1.8 0 -7.1 -6 -9.7 -11.2 -2.8 -5.5 -3.8 -15.8 -1.6 -15.8 1 0 1.9 1.6 2.6 5 2.7 12.4 10.9 20.9 23.5 24.1 2.7 0.7 4.6 1.7 4.6 2.5 0 2.1 -7.7 1.7 -13.2 -0.8z"/>
  <path d="M266 274.6 c0 -0.8 1.9 -1.8 4.6 -2.5 6.9 -1.8 11.6 -4.5 15.8 -9.2 5.7 -6.3 8 -12.1 7.9 -20.4 0 -11.3 -5.6 -20.6 -15.3 -25.9 -17.3 -9.4 -39 0.7 -43 20 -1.4 6.5 -4 7.6 -4 1.6 0 -4.4 2.7 -13.2 4.1 -13.2 0.5 0 0.9 -0.7 0.9 -1.5 0 -0.8 0.7 -1.5 1.5 -1.5 0.8 0 1.5 -0.9 1.5 -2 0 -1.1 0.8 -2.4 1.7 -2.7 0.9 -0.4 2.5 -1.5 3.5 -2.5 3.7 -3.7 8.9 -5.1 19.3 -5.2 8.9 -0.1 10.6 0.2 15.8 2.6 5.1 2.4 5.7 3 5.7 5.7 0 2.6 0.4 3 3.2 3.3 2.7 0.3 3.6 1.1 5.7 5.2 3.6 7.1 4.2 21.6 1.2 29.7 -2.3 6 -8.3 13.9 -10.7 13.9 -0.8 0 -1.4 0.4 -1.4 0.9 0 0.5 -2.2 1.8 -4.9 3 -5.8 2.4 -13.1 2.9 -13.1 0.7z"/>
  <path d="M266 254 c0 -1.6 0.7 -2 3.5 -2 3.9 0 4.6 1.4 1.6 3 -3.1 1.6 -5.1 1.2 -5.1 -1z"/>
  <path d="M255.6 252.4 l-2.9 -2.9 2.8 -0.3 c3.4 -0.4 3.7 -0.1 3.3 3.3 l-0.3 2.8 -2.9 -2.9z"/>
  <path d="M369 274.6 c0 -3.2 0.3 -3.6 2.5 -3.6 2.4 0 2.5 0.1 1.2 3.2 -1.9 4.6 -3.7 4.8 -3.7 0.4z"/>
  <path d="M21.1 271.9 c-0.6 -1.8 -1.1 -3.7 -1 -4.3 0 -0.6 0.7 0.7 1.5 2.8 0.8 2.2 1.2 4.1 1 4.3 -0.2 0.2 -0.9 -1 -1.5 -2.8z"/>
  <path d="M379.2 269 c0 -0.8 0.4 -2.6 0.8 -4 0.6 -2 0.8 -2.1 0.8 -0.5 0 1.1 -0.3 2.9 -0.8 4 -0.5 1.2 -0.8 1.4 -0.8 0.5z"/>
  <path d="M24.6 265.8 c-1 -3.8 -0.7 -4.8 1.4 -4.8 1.6 0 2 0.7 2 3.5 0 4 -2.4 4.9 -3.4 1.3z"/>
  <path d="M323 250.5 c0 -4.8 0.2 -5.5 2 -5.5 1.8 0 2 0.7 2 5.5 0 4.8 -0.2 5.5 -2 5.5 -1.8 0 -2 -0.7 -2 -5.5z"/>
  <path d="M382.3 251 c0 -3 0.2 -4.3 0.4 -2.7 0.2 1.5 0.2 3.9 0 5.5 -0.2 1.5 -0.4 0.2 -0.4 -2.8z"/>
  <path d="M73 249 c0 -3.3 0.3 -4 2 -4 1.7 0 2 0.7 2 4 0 3.3 -0.3 4 -2 4 -1.7 0 -2 -0.7 -2 -4z"/>
  <path d="M17.4 242.5 c0 -4.9 0.1 -7.1 0.3 -4.8 0.2 2.3 0.2 6.4 0 9 -0.2 2.6 -0.3 0.8 -0.3 -4.2z"/>
  <path d="M382.2 235.5 c-0.1 -2.2 -0.4 -5.8 -0.7 -8 l-0.5 -4 1.1 4 c0.5 2.2 0.8 5.8 0.6 8 l-0.4 4 -0.1 -4z"/>
  <path d="M322.6 233.8 c-1.7 -11.8 -3 -17.7 -5.1 -23.4 l-2.4 -6.4 2.4 0 c2 0 2.6 0.9 4.4 6.3 2.1 6.3 4 17.5 4.1 23.5 0 2.1 -0.5 3.2 -1.5 3.2 -0.8 0 -1.6 -1.3 -1.9 -3.2z"/>
  <path d="M74.4 228.9 c0.9 -8.6 4.3 -22.3 5.6 -22.7 0.6 -0.2 1 -1.2 1 -2.2 0 -3.2 1.1 -5 3.1 -5 2.4 0 2.5 -3.9 0.4 -10 -0.8 -2.3 -1.5 -5.5 -1.5 -7 0 -1.6 -0.4 -3 -0.9 -3.2 -0.5 -0.1 -2.3 -5.7 -3.9 -12.3 -1.8 -7.3 -3.1 -10.7 -3.1 -8.7 -0.1 2.1 -0.6 3.2 -1.6 3.2 -0.8 0 -1.5 0.8 -1.5 1.8 0 1 -0.9 2.8 -2 4 -1.1 1.2 -2 2.6 -2 3.2 0 0.5 -1.1 1 -2.5 1 -1.4 0 -2.5 -0.3 -2.5 -0.7 0.1 -2.5 13.1 -19.3 14.8 -19.3 0.4 0 2.3 6.2 4.1 13.8 1.9 7.5 4.5 16.8 5.8 20.6 2.9 8.7 2.9 9.7 -0.2 14.1 -4.4 6.5 -7.3 16.2 -10 32.8 -0.4 2.5 -1.1 3.7 -2.2 3.7 -1.3 0 -1.5 -1 -0.9 -7.1z"/>
  <path d="M18.1 228.3 c-0.1 -2.6 1.9 -12.6 2.5 -12.1 0.2 0.2 -0.3 3.5 -1 7.4 -0.8 3.8 -1.5 5.9 -1.5 4.7z"/>
  <path d="M23 228.8 c0 -3 1.3 -5.8 2.6 -5.8 0.9 0 1.4 1.2 1.4 3.5 0 2.8 -0.4 3.5 -2 3.5 -1.1 0 -2 -0.6 -2 -1.2z"/>
  <path d="M379.5 219.2 c-0.8 -5.1 -5.4 -14.8 -9 -19 -1.5 -1.9 -5.1 -4.9 -7.9 -6.8 -2.8 -1.9 -4.7 -3.4 -4.3 -3.4 1.6 0 9.4 5.9 12.5 9.5 1.8 2 4.3 5.8 5.7 8.4 2.6 5.2 5.1 13.8 4.2 14.7 -0.3 0.3 -0.8 -1.2 -1.2 -3.4z"/>
  <path d="M21.5 213 c0.9 -3 3.4 -8 4 -8 0.4 0 -3.5 9.2 -4.3 10 -0.2 0.3 -0.1 -0.6 0.3 -2z"/>
  <path d="M32.2 204.1 c1.3 -2.1 2.8 -1.9 2.8 0.5 0 0.8 -0.9 1.4 -2 1.4 -1.7 0 -1.9 -0.3 -0.8 -1.9z"/>
  <path d="M365 204 c0 -1.3 0.5 -1.7 1.4 -1.4 2.4 0.9 2.8 3.4 0.6 3.4 -1.3 0 -2 -0.7 -2 -2z"/>
  <path d="M341 196.3 c0 -5.6 -0.6 -9 -2 -12.2 -1.1 -2.4 -2 -5.2 -2 -6.2 0 -1 -0.4 -1.9 -0.9 -1.9 -0.5 0 -1.3 -1 -1.7 -2.2 -0.3 -1.2 -1.3 -2.8 -2 -3.6 -0.8 -0.7 -1.4 -1.9 -1.4 -2.7 0 -0.7 -0.7 -1.5 -1.5 -1.9 -0.8 -0.3 -1.5 -1.2 -1.5 -2 0 -0.7 -0.7 -1.6 -1.5 -2 -0.9 -0.3 -1.5 -1.9 -1.5 -3.8 -0.1 -1.9 -1.5 2.2 -3.4 9.7 -1.9 7.2 -4.4 16.4 -5.6 20.4 -1.6 5.3 -2 7.6 -1.2 7.9 1.3 0.4 1.7 7.2 0.5 7.2 -0.5 0 -2 -1.8 -3.4 -4 l-2.5 -4 2.8 -8.8 c1.6 -4.8 4.3 -14.5 6 -21.7 1.8 -7.1 3.3 -13.2 3.5 -13.4 0.7 -0.9 7.7 6.7 11.8 12.9 6.2 9.4 10.8 20.5 11.3 27.2 0.6 7.3 -0.4 12.8 -2.3 12.8 -1.2 0 -1.5 -1.6 -1.5 -7.7z"/>
  <path d="M32.7 195.9 c1.2 -1.5 7.3 -5.3 7.3 -4.6 0 0.2 -1.9 1.7 -4.2 3.2 -2.4 1.6 -3.8 2.2 -3.1 1.4z"/>
  <path d="M55.6 191.6 c-0.9 -3.7 5.1 -19.6 7.4 -19.6 1.8 0 1.1 5.3 -1.5 11.5 -1.3 3.3 -2.5 7 -2.5 8.3 0 2.9 -2.6 2.8 -3.4 -0.2z"/>
  <path d="M44.5 188.9 c2.2 -1 4.5 -1.9 5.2 -1.9 0.6 0 1.4 -0.8 1.7 -1.7 0.4 -1.6 0.5 -1.6 0.3 0.1 -0.1 1.2 -1.9 2.4 -5.2 3.7 -6.3 2.4 -7.2 2.3 -2 -0.2z"/>
  <path d="M90.6 179.8 c-4.3 -13.9 -8.8 -32.6 -8.1 -33.8 0.7 -1.1 13.6 -9.7 15.8 -10.6 1.3 -0.5 1.7 0 1.7 2 0 2.1 -0.5 2.6 -2.5 2.6 -1.6 0 -2.5 0.6 -2.5 1.5 0 0.8 -0.7 1.5 -1.5 1.5 -0.8 0 -1.5 0.5 -1.5 1 0 0.6 -0.9 1 -2 1 -2.6 0 -3.5 5.2 -2 11.1 2.9 11.5 8.4 29.1 8.8 28.1 0.2 -0.7 1.5 -1.2 2.8 -1.2 1.5 0 2.4 -0.6 2.4 -1.5 0 -1 1.1 -1.5 3.5 -1.5 1.9 0 3.5 0.4 3.5 0.9 0 0.5 -2.4 2.3 -5.3 3.9 -2.9 1.6 -5.9 3.7 -6.6 4.6 -0.7 0.9 -1.7 1.6 -2.2 1.6 -0.5 0 -2.4 -5.1 -4.3 -11.2z"/>
  <path d="M302.6 189.1 c-4.7 -5.2 -22.1 -11 -39.6 -13.1 -13.8 -1.7 -15 -2 -15 -3.5 0 -1.8 2.5 -1.9 14 -0.4 17.6 2.1 33 6.1 33 8.4 0 1 1 1.5 2.9 1.5 1.6 0 3.6 0.6 4.4 1.4 1.2 1.2 1.7 0.2 4 -6.8 6.9 -21.5 8.1 -31.6 3.6 -31.6 -1.1 0 -2.2 -0.7 -2.5 -1.5 -0.4 -0.8 -1.2 -1.5 -1.9 -1.5 -0.8 0 -2 -0.6 -2.7 -1.3 -0.7 -0.7 -3.2 -2.1 -5.5 -3.1 -4.5 -2 -6.1 -5.6 -2.5 -5.6 2.1 0 15.3 7.8 20.1 11.8 l3.4 2.9 -2.8 11.4 c-3.3 14.1 -9.3 32.9 -10.4 32.9 -0.4 0 -1.6 -0.9 -2.5 -1.9z"/>
  <path d="M352.2 188.5 c-2.9 -1.3 -6 -6 -4.8 -7.3 0.3 -0.2 0.8 0.8 1.2 2.3 0.5 1.9 1.9 3.2 4.8 4.5 2.2 1 3.7 1.9 3.1 1.9 -0.5 0 -2.5 -0.6 -4.3 -1.4z"/>
  <path d="M111 179.1 c0 -1.5 1.4 -2.2 6.8 -3.5 9 -2.1 17.1 -3.4 26.5 -4.2 6.7 -0.6 7.7 -0.5 7.7 0.9 0 1 -1.1 1.8 -3.2 2.1 -1.8 0.3 -8.4 1.2 -14.6 2.1 -6.2 0.9 -13.4 2.3 -16 3 -6.2 1.9 -7.2 1.9 -7.2 -0.4z"/>
  <path d="M342.9 171.9 c-1.3 -3.2 -8.5 -14.3 -13.5 -20.9 l-2.7 -3.5 3.2 3.5 c6.2 6.9 16 22.4 14.8 23.6 -0.2 0.3 -1 -1 -1.8 -2.7z"/>
  <path d="M154 172 c0 -1.8 0.7 -2 5.5 -2 4 0 5.5 0.4 5.5 1.4 0 1.6 -3 2.6 -7.7 2.6 -2.6 0 -3.3 -0.4 -3.3 -2z"/>
  <path d="M235.8 173.3 c-1 -0.2 -1.8 -1.1 -1.8 -1.9 0 -1.1 1.5 -1.4 6 -1.4 5.3 0 6 0.2 6 2 0 1.7 -0.6 2 -4.2 1.9 -2.4 -0.1 -5.1 -0.3 -6 -0.6z"/>
  <path d="M172 171 c0 -1.8 0.7 -2 6.5 -2 4.9 0 6.5 0.3 6.5 1.4 0 1.7 -3.1 2.6 -8.7 2.6 -3.6 0 -4.3 -0.3 -4.3 -2z"/>
  <path d="M215.8 172.3 c-1 -0.2 -1.8 -1.1 -1.8 -1.9 0 -1.1 1.7 -1.4 7.5 -1.4 6.8 0 7.5 0.2 7.5 2 0 1.8 -0.6 2 -5.7 1.9 -3.2 -0.1 -6.6 -0.3 -7.5 -0.6z"/>
  <path d="M58 168.6 c0 -2 9.4 -14.6 15.7 -21 6.6 -6.6 20.3 -17 20.3 -15.3 0 0.3 -2.9 2.3 -6.3 4.6 -8 5.2 -20.2 17.6 -25.6 26.1 -2.2 3.6 -4.1 6.1 -4.1 5.6z"/>
  <path d="M166 152 c0 -1.5 0.7 -2 2.8 -2 4.2 0 7.2 1.1 7.2 2.6 0 1 -1.4 1.4 -5 1.4 -4.3 0 -5 -0.3 -5 -2z"/>
  <path d="M225 152.6 c0 -1.6 3 -2.6 7.8 -2.6 2.5 0 3.2 0.4 3.2 2 0 1.8 -0.7 2 -5.5 2 -4 0 -5.5 -0.4 -5.5 -1.4z"/>
  <path d="M142 151 c-6.3 -0.9 -14.1 -2.5 -17.2 -3.4 -4.9 -1.5 -5.8 -2.1 -5.8 -4.1 l0 -2.3 6.9 2.3 c3.8 1.3 12 3.1 18.3 4 6.2 0.9 12.8 1.8 14.6 2.1 1.9 0.3 3.2 1.1 3.2 1.9 0 2 -5.1 1.8 -20 -0.5z"/>
  <path d="M239 151.5 c0 -0.8 1.3 -1.6 3.3 -1.9 27.8 -4.1 34.2 -5.7 43.3 -11.2 l5.4 -3.3 0 3 c0 2.4 -0.4 2.9 -2.5 2.9 -1.6 0 -2.5 0.6 -2.5 1.5 0 0.9 -0.9 1.5 -2.4 1.5 -1.3 0 -2.6 0.5 -2.8 1.1 -0.5 1.6 -12.6 4.7 -25 6.4 -13.8 1.9 -16.8 1.9 -16.8 0z"/>
  <path d="M320.8 143.2 c-2.6 -2.2 -6.9 -5.4 -9.7 -7.2 -2.8 -1.7 -5.1 -3.4 -5.1 -3.7 0 -0.9 12 7.2 17 11.6 5.1 4.4 3.3 3.8 -2.2 -0.7z"/>
  <path d="M111 139.5 c0 -3 0.3 -3 4.1 -0.8 3.8 2.3 3.7 3.3 -0.6 3.3 -3.1 0 -3.5 -0.3 -3.5 -2.5z"/>
  <path d="M103 134.5 c0 -2.6 3 -2.9 5.3 -0.6 l2.1 2.1 -3.7 0 c-2.7 0 -3.7 -0.4 -3.7 -1.5z"/>
  <path d="M300.8 129.9 c-2.1 -1.1 -3.8 -2.2 -3.8 -2.4 0 -0.3 1.8 0.4 4 1.5 2.2 1.1 4 2.3 4 2.5 0 0.7 0 0.7 -4.2 -1.6z"/>
  <path d="M101.2 127.8 c0.9 -0.7 1.8 -2.2 2.1 -3.3 0.4 -1.6 0.5 -1.4 0.6 0.6 0.1 1.6 -0.5 2.9 -1.5 3.3 -2.5 0.9 -2.9 0.7 -1.2 -0.6z"/>
  <path d="M289 121.5 c0 -2.4 0.5 -3.5 1.4 -3.5 2.1 0 2.8 1.5 2 4.5 -1 3.9 -3.4 3.2 -3.4 -1z"/>
  <path d="M297.1 109.8 c-0.1 -1 0.9 -2.2 2.2 -2.8 1.9 -0.9 2 -0.9 0.6 0.2 -0.9 0.7 -1.8 2 -2.2 2.8 -0.4 1.2 -0.6 1.2 -0.6 -0.2z"/>
  <path d="M96.8 105.4 c-3.8 -2 -3.6 -2.8 0.2 -0.9 1.7 0.9 3 1.8 3 2 0 0.7 -0.1 0.6 -3.2 -1.1z"/>
  <path d="M170 105.6 c0 -1.3 2.8 -2.6 5.8 -2.6 0.6 0 1.2 0.9 1.2 2 0 1.6 -0.7 2 -3.5 2 -2.3 0 -3.5 -0.5 -3.5 -1.4z"/>
  <path d="M183 104.6 c0 -1.3 2.8 -2.6 5.8 -2.6 0.6 0 1.2 0.9 1.2 2 0 1.6 -0.7 2 -3.5 2 -2.3 0 -3.5 -0.5 -3.5 -1.4z"/>
  <path d="M210 104 c0 -2.1 1 -2.4 4.8 -1.4 3.6 1 2.7 3.4 -1.3 3.4 -2.8 0 -3.5 -0.4 -3.5 -2z"/>
  <path d="M302.5 105.3 c0.6 -0.5 3.7 -2.7 6.9 -4.8 4 -2.7 7.2 -5.9 9.8 -9.9 2.1 -3.3 3.8 -5.5 3.8 -4.9 0 2.3 -6.7 10.8 -11.4 14.3 -4.7 3.5 -11.4 7.4 -9.1 5.3z"/>
  <path d="M86.4 97.8 c-3.1 -2.9 -6 -6.2 -6.6 -7.3 -0.5 -1.1 0.4 -0.3 2.1 1.7 1.7 2 5 5.3 7.3 7.2 2.3 2 3.8 3.6 3.4 3.6 -0.4 0 -3.2 -2.4 -6.2 -5.2z"/>
  <path d="M96.6 99.5 c-2.7 -1.9 -5.6 -4.1 -6.5 -5 -1.4 -1.3 -1.2 -1.5 2.2 -1.5 3 0 3.7 0.4 3.7 2 0 1.8 0.7 2 5.5 2 5.1 0 5.5 -0.2 5.5 -2.3 0 -1.8 1.2 -2.9 5.5 -5 3.1 -1.5 6.2 -2.7 7.1 -2.7 0.8 0 2.2 -0.6 2.9 -1.4 4 -4 41.5 -13.6 53.1 -13.6 l5.4 0 0 3.5 c0 3 -0.3 3.5 -2.4 3.5 -1.9 0 -2.3 -0.4 -1.9 -2 0.6 -2.4 1.1 -2.4 -12.5 0 -22 4 -56.7 17.7 -59.4 23.4 -1.4 3.3 -2.2 3.2 -8.2 -0.9z"/>
  <path d="M295.3 100.1 c-1.5 -2.4 -8.7 -6.4 -21.1 -11.7 -10 -4.3 -12.5 -6.4 -7.4 -6.4 3.6 0 9.2 1.9 9.2 3.1 0 0.5 0.9 0.9 2 0.9 2.9 0 7 2.1 7 3.7 0 0.7 1.1 1.3 2.5 1.3 2.8 0 7.5 2 7.5 3.2 0 0.4 0.7 0.8 1.5 0.8 0.8 0 1.5 0.5 1.5 1.1 0 1.2 4.3 0.1 4.8 -1.2 0.2 -0.5 1.9 -0.9 3.8 -0.9 4.3 0 3.8 1.2 -2.4 5.1 -5.4 3.4 -7.3 3.6 -8.9 1z"/>
  <path d="M85.9 90.4 c-5.6 -6.4 -6.8 -16.8 -2.9 -24.4 2.5 -5 10 -12.7 18 -18.7 6.1 -4.6 21.9 -14.3 23.2 -14.3 0.4 0 0.8 1.1 0.8 2.4 0 1.9 -0.8 2.8 -3.5 3.7 -1.9 0.7 -3.5 1.7 -3.5 2.1 0 0.4 -1.1 0.8 -2.5 0.8 -1.6 0 -2.5 0.6 -2.5 1.5 0 0.8 -0.7 1.5 -1.5 1.5 -0.8 0 -1.5 0.5 -1.5 1 0 0.6 -0.6 1 -1.4 1 -0.8 0 -1.6 0.7 -2 1.5 -0.3 0.8 -1.2 1.5 -2 1.5 -0.7 0 -1.6 0.7 -2 1.5 -0.3 0.8 -1.7 1.5 -3.1 1.5 -1.7 0 -2.5 0.5 -2.5 1.8 0 2 -5.9 8.2 -7.8 8.2 -0.7 0 -1.2 0.9 -1.2 2 0 1.1 -0.6 2 -1.4 2 -0.9 0 -1.6 1.8 -2 5 -0.5 3.9 -0.2 6 1.4 9.9 1.2 2.7 2 6.1 1.8 7.6 -0.3 2.6 -0.4 2.7 -1.9 0.9z"/>
  <path d="M312 88.6 c0 -2.4 0.5 -3.6 1.4 -3.6 3.7 0 2.2 -19.3 -1.6 -20.3 -1.3 -0.4 -1.8 -1.5 -1.8 -4.3 l0 -3.7 2.3 2.1 c4.2 4 7.2 11.2 7.1 17.2 0 5.6 -2.7 12.3 -5.8 14.9 -1.4 1.2 -1.6 0.9 -1.6 -2.3z"/>
  <path d="M76.6 84.5 c-0.3 -0.9 -0.6 -2.4 -0.5 -3.3 0 -0.9 0.5 -0.4 1 1.2 0.9 3.2 0.6 4.8 -0.5 2.1z"/>
  <path d="M323.1 83 c0 -0.8 0.4 -2.4 0.9 -3.5 0.5 -1.3 0.9 -1.4 0.9 -0.5 0 0.8 -0.4 2.4 -0.9 3.5 -0.5 1.3 -0.9 1.4 -0.9 0.5z"/>
  <path d="M252.5 80.9 c-3 -1 -17.8 -4.2 -24.7 -5.3 -2.4 -0.4 -3.8 -1.2 -3.8 -2.1 0 -2.2 4.6 -1.9 18.5 1.1 17.1 3.6 16.5 3.4 16.5 5.5 0 2.1 -1.7 2.3 -6.5 0.8z"/>
  <path d="M323.6 71.4 c-0.4 -1.4 -0.5 -2.8 -0.3 -3.1 0.3 -0.2 0.8 0.8 1.1 2.3 0.4 1.4 0.5 2.8 0.3 3.1 -0.3 0.2 -0.8 -0.8 -1.1 -2.3z"/>
  <path d="M76.5 68.5 c0.6 -2.8 6.9 -13.5 8.1 -13.5 0.3 0 -0.9 2 -2.6 4.5 -1.7 2.5 -3.8 6.2 -4.6 8.3 -1.2 3.1 -1.3 3.2 -0.9 0.7z"/>
  <path d="M319.3 61.4 c-1.7 -3 -2.7 -5.2 -2.2 -4.9 1.1 0.8 6.3 9.5 5.8 9.9 -0.2 0.2 -1.8 -2.1 -3.6 -5z"/>
  <path d="M301.3 54 c-0.3 -1.1 -1.4 -2 -2.4 -2 -1.1 0 -1.9 -0.7 -1.9 -1.5 0 -0.8 -0.9 -1.5 -2 -1.5 -1.1 0 -2 -0.7 -2 -1.5 0 -0.8 -0.9 -1.5 -2 -1.5 -1.1 0 -2 -0.4 -2 -0.9 0 -0.5 -1.1 -1.2 -2.5 -1.5 -1.4 -0.4 -2.5 -1.1 -2.5 -1.6 0 -0.6 -0.7 -1 -1.5 -1 -0.8 0 -1.5 -0.9 -1.5 -2 0 -1.6 -0.7 -2 -3 -2 -3.1 0 -15.2 -5.5 -15.8 -7.1 -0.2 -0.5 -1.5 -0.9 -2.8 -0.9 -1.3 0 -2.4 -0.4 -2.4 -1 0 -0.5 -0.7 -1 -1.6 -1 -1 0 -6 -1.4 -11.3 -3.1 -10.5 -3.4 -27.2 -6.9 -32.6 -6.9 -2.8 0 -3.5 -0.4 -3.5 -2 0 -2.5 1.6 -2.6 16.3 0 26.1 4.4 52.2 15.6 73.8 31.6 11.5 8.5 12.2 9.4 7.4 9.4 -2.8 0 -3.8 -0.5 -4.2 -2z"/>
  <path d="M90.2 49.5 c0.7 -1.1 14.2 -11 19.3 -14 4.9 -3 1.5 -0.2 -6 5 -3.8 2.6 -8.6 6 -10.4 7.4 -1.9 1.4 -3.2 2.1 -2.9 1.6z"/>
  <path d="M302 44.2 c-4.1 -3.1 -8.6 -6.5 -10 -7.5 -2.5 -1.8 -2.5 -1.8 0.5 -0.2 3.4 2 17.5 12.5 17.5 13.1 0 0.7 -0.3 0.5 -8 -5.4z"/>
  <path d="M274 27 c-5.2 -2.7 -9.2 -4.9 -8.7 -4.9 1 -0.1 18.7 8.8 18.7 9.4 0 0.7 0.5 0.9 -10 -4.5z"/>
  <path d="M118 30.5 c0 -0.7 14.1 -7.7 14.6 -7.3 0.2 0.2 -3 2.1 -7.1 4.1 -4.1 2 -7.5 3.5 -7.5 3.2z"/>
  <path d="M132 29.9 c0 -3.4 35 -14.2 53.3 -16.4 5.2 -0.7 5.7 -0.6 5.7 1.2 0 1.6 -1.3 2 -8.8 3.1 -4.9 0.6 -12.8 2.3 -17.5 3.7 -4.8 1.4 -9.8 2.5 -11.2 2.5 -1.4 0 -2.5 0.5 -2.5 1 0 0.6 -1.1 1 -2.5 1 -1.4 0 -2.5 0.5 -2.5 1 0 0.6 -0.9 1 -2.1 1 -1.1 0 -2.7 0.7 -3.5 1.5 -1.7 1.7 -8.4 2.1 -8.4 0.4z"/>
  <path d="M136 21.5 c1.4 -0.8 3 -1.4 3.5 -1.4 0.6 0 -0.1 0.6 -1.5 1.4 -1.4 0.8 -2.9 1.4 -3.5 1.4 -0.5 0 0.1 -0.6 1.5 -1.4z"/>
  <path d="M258.5 19.9 c-2.2 -1 -2.9 -1.6 -1.5 -1.3 2.8 0.7 8 3.3 6.5 3.3 -0.5 0 -2.8 -0.9 -5 -2z"/>
  <path d="M141 19.7 c0 -0.6 12 -4.7 13.4 -4.6 0.6 0 -1.1 0.8 -3.9 1.8 -7.6 2.7 -9.5 3.3 -9.5 2.8z"/>
  <path d="M246.5 16 c-2.7 -1 -4.3 -1.8 -3.5 -1.8 0.8 0 3.8 0.8 6.5 1.8 2.8 1 4.3 1.8 3.5 1.8 -0.8 0 -3.7 -0.8 -6.5 -1.8z"/>
  <path d="M167 11.6 c0 -0.2 3.3 -0.9 7.3 -1.5 3.9 -0.7 8.8 -1.4 10.7 -1.7 1.9 -0.3 3.2 -0.3 2.9 0 -0.3 0.4 -5 1.3 -10.4 2.1 -11.2 1.7 -10.5 1.6 -10.5 1.1z"/>
  <path d="M226 11 c-3.4 -0.7 -3.4 -0.7 -0.5 -0.8 1.7 0 4.1 0.4 5.5 0.8 3.3 1.1 0 1.1 -5 0z"/>
  <path d="M213.5 9 c-1.3 -0.6 -0.2 -0.7 3 -0.3 2.8 0.3 5.2 0.7 5.4 0.9 0.9 0.8 -6.5 0.2 -8.4 -0.6z"/>
  <path d="M194.8 8.3 c2.9 -0.2 7.4 -0.2 10 0 2.6 0.2 0.2 0.3 -5.3 0.3 -5.5 0 -7.6 -0.1 -4.7 -0.3z"/>
 </g>
 <g fill="#cc7631">
  <path d="M245.9 459.1 c-0.9 -2.7 -1.3 -2.8 -5.5 -2.3 -3.9 0.4 -4.9 0.1 -7.5 -2.4 -3.1 -3 -3.9 -8 -1.7 -10.2 1 -1 0.5 -1.5 -2 -2.4 -3.2 -1.2 -3.2 -1.3 -3.2 -8.4 0 -6.8 0.1 -7.2 2.5 -7.8 2.2 -0.6 2.4 -1 1.9 -5.4 -0.5 -4.3 -0.3 -5 2.5 -7.6 2.6 -2.5 3.5 -2.8 7.6 -2.3 4.5 0.4 4.7 0.3 5.7 -2.4 1 -2.8 1.2 -2.9 7.7 -2.9 6.4 0 6.7 0.1 7.8 2.9 1 2.7 1.3 2.9 5.6 2.4 4.1 -0.5 4.9 -0.2 7.2 2.3 2.2 2.3 2.6 3.6 2.3 7.4 -0.2 4 0 4.6 2.5 5.8 2.5 1.2 2.7 1.7 2.7 8.1 0 6.4 -0.1 6.8 -2.7 7.7 -2.5 0.9 -2.7 1.3 -2.4 5.8 0.2 3.9 -0.2 5.3 -2.1 7.3 -1.9 2 -3.1 2.4 -7.2 2.2 -4.6 -0.3 -5 -0.1 -5.9 2.4 -0.8 2.6 -1.2 2.7 -7.8 2.7 -6.8 0 -7 -0.1 -8 -2.9z m9.5 -20.7 c0.9 -0.3 1.6 -1.5 1.6 -2.5 0 -1.4 -0.7 -1.9 -2.9 -1.9 -2.3 0 -3 0.5 -3.3 2.5 -0.5 2.6 1.1 3.3 4.6 1.9z"/>
  <path d="M31.2 280.1 c-10.1 -13.7 -12.1 -45.3 -4.2 -66.4 2.2 -5.8 6.3 -11.7 7.4 -10.6 0.4 0.3 0.5 18.8 0.4 41 l-0.3 40.4 -3.3 -4.4z"/>
  <path d="M365.6 279.3 c-0.3 -2.1 -0.6 -20.1 -0.6 -40 0 -38.8 0.1 -39.9 4.7 -32.9 3.5 5.4 5.3 10.4 6.8 19.4 3.4 19.4 0.5 42.4 -6.9 53.9 -1.2 1.8 -2.4 3.3 -2.7 3.3 -0.4 0 -0.9 -1.7 -1.3 -3.7z"/>
  <path d="M129.4 255 c-4.2 -1.7 -7.4 -6.8 -7.4 -11.8 0 -15.5 19.6 -19.7 25.6 -5.5 0.8 1.8 1.4 4.2 1.4 5.4 0 3.6 -3.2 9 -6.4 11 -3.2 2 -9.5 2.4 -13.2 0.9z"/>
  <path d="M259.4 255.1 c-3.2 -1.4 -7.2 -6.8 -8 -10.6 -1.9 -10.4 11.1 -19.1 20.3 -13.5 11.2 6.8 7.5 23.7 -5.4 24.6 -2.6 0.2 -5.7 0 -6.9 -0.5z"/>
  <path d="M108 123 c0 -3.8 0.3 -4.2 4.3 -5.9 6.7 -2.9 30.1 -8.9 43 -11.1 6.5 -1.1 19.2 -2.5 28.2 -3.2 32.2 -2.3 70 2.6 102 13.4 l7 2.3 -0.3 4 c-0.2 2.2 -0.5 4.1 -0.6 4.2 -0.1 0.1 -2.8 -0.7 -6.1 -1.8 -10.5 -3.5 -29.6 -7.9 -44.5 -10.1 -21.2 -3.3 -60.1 -3.3 -81.5 0 -16.7 2.5 -33.5 6.3 -43.9 9.8 -3.8 1.3 -7.1 2.4 -7.3 2.4 -0.2 0 -0.3 -1.8 -0.3 -4z"/>
  <path d="M194.5 91 c-0.4 -2 -1.7 -3.6 -3.8 -4.6 -2.8 -1.5 -3.3 -1.5 -6 0.1 -2.9 1.7 -2.9 1.7 -6.4 -1.7 -3.5 -3.5 -3.5 -3.6 -1.9 -6.7 1.6 -3 1.6 -3.1 -0.3 -3.1 -1.1 0 -2.4 -0.6 -2.8 -1.4 -0.4 -0.7 -2.1 -1.7 -3.8 -2.3 -3 -1 -3 -1 -3 -8.8 0 -7.8 0 -7.8 3 -8.8 3.7 -1.2 4.6 -2.6 3.4 -4.8 -0.5 -1 -0.9 -3.4 -0.9 -5.4 0 -6.7 8.6 -11.9 13.9 -8.6 2.2 1.4 4.8 -0.4 5.6 -3.9 l0.7 -3 7.9 0 8 0 0.6 3 c0.6 3.2 3.7 5.8 4.8 4 0.3 -0.5 2.6 -1 5 -1 3.6 0 4.7 0.5 7 3.2 2.5 2.9 2.7 3.8 2.2 9.1 l-0.5 5.9 3.4 1.4 3.5 1.5 -0.3 7.7 c-0.3 7.2 -0.5 7.7 -2.6 8 -1.2 0.2 -2.8 1.2 -3.5 2.3 -0.6 1 -2 1.9 -3 1.9 -1.4 0 -1.7 0.5 -1.2 1.7 1.7 4.1 1.7 5.5 -0.1 7.4 -3.2 3.6 -5.1 4.1 -7.9 2.3 -3.6 -2.3 -8 -0.4 -9.5 4.2 -1.1 3.2 -1.4 3.4 -6 3.4 -4.6 0 -4.9 -0.2 -5.5 -3z m8.8 -21.6 c1.2 -0.4 1.7 -1.7 1.7 -4 0 -3.4 -0.1 -3.4 -4.4 -3.4 -4.3 0 -4.5 0.1 -4.8 3.3 -0.2 2.4 0.2 3.5 1.7 4.3 1.1 0.7 2.5 1 3 0.8 0.6 -0.2 1.8 -0.7 2.8 -1z"/>
 </g>
 <g fill="#38d2d6">
  <path d="M193.9 494.1 c-2.6 -2.6 -2.9 -3.6 -2.9 -9 0 -7.2 1.2 -10.2 5 -12.4 3.5 -2.1 12.1 -2.2 16 -0.2 4.1 2.1 5 4.3 5 11.9 0 5.5 -0.4 6.9 -2.6 9.5 -2.5 3 -2.9 3.1 -10.1 3.1 -6.9 0 -7.7 -0.2 -10.4 -2.9z"/>
  <path d="M134 491.9 c-8.3 -1 -30.7 -4.7 -32.9 -5.4 -1.4 -0.5 -1.3 -4.4 0.6 -18.7 0.5 -4.6 0.7 -4.8 3.7 -4.8 1.8 0 7.9 0.9 13.7 1.9 5.7 1.1 14.9 2.4 20.4 3.1 5.5 0.6 11.1 1.3 12.4 1.6 l2.4 0.5 -0.7 10.6 c-0.4 5.9 -0.9 11 -1.2 11.5 -0.6 1 -8.2 0.9 -18.4 -0.3z"/>
  <path d="M247.5 491.8 c-0.3 -0.7 -0.6 -6 -0.7 -11.8 l-0.3 -10.5 11.5 -1.2 c6.3 -0.7 16.8 -2.2 23.4 -3.3 17.6 -3 16.1 -3.5 17.5 6.8 0.6 4.9 1.1 10.2 1.1 11.9 l0 3.1 -13.7 2.1 c-25.2 4 -38.1 4.9 -38.8 2.9z"/>
  <path d="M193.9 455.1 c-2.6 -2.7 -2.9 -3.6 -2.9 -9.6 0 -3.6 0.5 -7.5 1 -8.6 1.9 -3.5 6.7 -5.1 13.8 -4.7 5.5 0.4 6.8 0.8 8.8 3.2 2 2.3 2.4 3.8 2.4 9.7 0 6.5 -0.2 7.3 -2.9 10 -2.7 2.7 -3.5 2.9 -10.1 2.9 -6.6 0 -7.4 -0.2 -10.1 -2.9z"/>
  <path d="M193.5 396.3 c-15 -17 -28.5 -32.9 -28.5 -33.7 0 -0.4 1.1 -0.5 2.5 -0.2 1.3 0.3 16.9 0.6 34.6 0.6 l32.1 0 -3.3 3.8 c-3.3 3.8 -32.2 35.2 -32.3 35.2 -0.1 0 -2.3 -2.6 -5.1 -5.7z"/>
  <path d="M123 280.5 c-11.3 -3.6 -21.6 -14.2 -25.2 -25.9 -6.5 -21.4 5.1 -43.2 26.4 -49.7 18.1 -5.5 37.8 3.2 46.4 20.6 2.7 5.5 2.9 6.9 2.9 17 0 9.8 -0.3 11.6 -2.7 16.7 -3.7 8 -10.7 15.2 -18.7 19.1 -5.7 2.8 -7.7 3.2 -15.6 3.4 -5.7 0.2 -10.7 -0.3 -13.5 -1.2z m23.6 -9.9 c6.8 -3.2 12.4 -8.3 15.4 -14.3 2.1 -4.1 2.5 -6.2 2.5 -13.8 0 -7.4 -0.4 -9.8 -2.3 -13.2 -3.5 -6.6 -7.6 -10.7 -13.9 -13.8 -14.7 -7.3 -32.2 -1.2 -40.1 14 -3.5 6.7 -3.8 18.7 -0.6 25.5 7 15 24.9 22.2 39 15.6z"/>
  <path d="M250.7 279.6 c-7.6 -3.2 -14.1 -8.7 -18.7 -15.8 -4.8 -7.3 -6.4 -13.9 -5.8 -23.7 0.9 -14.7 8.9 -26.6 22.6 -33.3 6.1 -3 7.4 -3.3 16.2 -3.3 8.8 0 10.1 0.3 16.2 3.3 8.6 4.2 15.3 10.9 19.2 19.2 2.9 6 3.1 7.3 3.1 17 0 9.2 -0.3 11.2 -2.6 16 -3.8 8.1 -10.9 15.4 -18.7 19.2 -5.9 2.9 -7.7 3.3 -16.2 3.6 -8.2 0.2 -10.3 -0.1 -15.3 -2.2z m27.1 -9.7 c18.4 -9.2 22.9 -32.2 9.2 -47.2 -6.6 -7.2 -13.1 -10.1 -22.5 -10 -11.6 0 -21.4 6.3 -26.7 17.1 -3.3 6.6 -3.3 19.8 0 25.9 3.5 6.7 7.8 11 14.4 14.3 8.6 4.3 17 4.2 25.6 -0.1z"/>
 </g>
 <g fill="#a8b0a8">
  <path d="M67.8 657.3 c-2.9 -3.2 -5.2 -7.2 -4.5 -8 0.3 -0.2 0.8 0.5 1.2 1.7 0.4 1.2 2 3.7 3.7 5.6 3.6 4.1 3.3 4.6 -0.4 0.7z"/>
  <path d="M246.3 643 c0 -3.6 0.2 -5 0.4 -3.2 0.2 1.7 0.2 4.7 0 6.5 -0.2 1.7 -0.4 0.3 -0.4 -3.3z"/>
  <path d="M337.4 630 c0 -10.2 0.2 -14.3 0.3 -9.2 0.2 5 0.2 13.4 0 18.5 -0.1 5 -0.3 0.9 -0.3 -9.3z"/>
  <path d="M237 602.3 c-0.3 -13.3 -0.2 -23.9 0.3 -23.4 0.4 0.4 0.6 11.3 0.5 24.2 l-0.3 23.4 -0.5 -24.2z"/>
  <path d="M75.9 594.2 c0.5 -3.4 0.6 -3.5 0.9 -0.8 0.2 1.6 0 3.2 -0.5 3.7 -0.5 0.5 -0.7 -0.7 -0.4 -2.9z"/>
  <path d="M359.3 591.3 c0.9 -0.2 2.5 -0.2 3.5 0 0.9 0.3 0.1 0.5 -1.8 0.5 -1.9 0 -2.7 -0.2 -1.7 -0.5z"/>
  <path d="M50.3 580.5 c0 -2.2 0.2 -3 0.4 -1.7 0.2 1.2 0.2 3 0 4 -0.3 0.9 -0.5 -0.1 -0.4 -2.3z"/>
  <path d="M185.8 583.3 c1.2 -0.2 3 -0.2 4 0 0.9 0.3 -0.1 0.5 -2.3 0.4 -2.2 0 -3 -0.2 -1.7 -0.4z"/>
  <path d="M210.8 583.3 c1.2 -0.2 3 -0.2 4 0 0.9 0.3 -0.1 0.5 -2.3 0.4 -2.2 0 -3 -0.2 -1.7 -0.4z"/>
  <path d="M115 565.3 c-0.3 -10 -0.2 -17.9 0.3 -17.4 0.4 0.4 0.6 8.6 0.5 18.2 l-0.3 17.4 -0.5 -18.2z"/>
  <path d="M349.2 580 c0 -1.9 0.2 -2.7 0.5 -1.7 0.2 0.9 0.2 2.5 0 3.5 -0.3 0.9 -0.5 0.1 -0.5 -1.8z"/>
  <path d="M284.3 578 c0 -2.5 0.2 -3.5 0.4 -2.2 0.2 1.2 0.2 3.2 0 4.5 -0.2 1.2 -0.4 0.2 -0.4 -2.3z"/>
  <path d="M181 577.5 c-4.1 -0.8 -10.2 -2.2 -13.4 -3.2 -5.9 -1.8 -6 -2 -8.5 -7.8 -3.3 -7.7 -6.4 -13.1 -9.8 -17.3 l-2.7 -3.4 3.5 0.4 c2.6 0.2 3.5 0.8 3.7 2.6 0.2 1.2 0.9 2.2 1.6 2.2 1.6 0 3.6 4.2 3.6 7.5 0 1.5 0.6 2.5 1.5 2.5 0.8 0 1.9 1.7 2.6 4 1.1 3.5 1.8 4.1 5.8 5.4 6.7 2.3 18.6 4.6 23.2 4.6 3.2 0 3.9 0.3 3.9 2 0 2.4 -3.6 2.5 -15 0.5z"/>
  <path d="M205 577.1 c0 -1.5 1.1 -1.9 6.8 -2.5 3.7 -0.3 10.4 -1.6 15 -2.9 l8.3 -2.2 3.4 -8 c2 -4.4 4 -8.1 4.5 -8.3 0.6 -0.2 1 -1 1 -1.8 0 -0.8 0.6 -1.4 1.4 -1.4 0.8 0 1.6 -1 1.8 -2.2 0.2 -1.7 1.1 -2.4 3.1 -2.6 2.1 -0.3 2.7 -0.9 2.7 -2.6 0 -2.6 2.9 -5.6 5.3 -5.6 0.9 0 1.7 -0.7 1.7 -1.5 0 -0.8 0.7 -1.5 1.5 -1.5 0.8 0 1.5 -0.4 1.5 -1 0 -0.5 0.7 -1 1.5 -1 0.8 0 1.5 -0.4 1.5 -0.8 0 -1.1 6.6 -4.2 9 -4.2 1.1 0 2 -0.4 2 -1 0 -0.5 1.1 -1 2.4 -1 1.3 0 2.6 -0.4 2.8 -0.8 0.2 -0.5 2.3 -1.5 4.8 -2.3 4 -1.3 4.6 -1.9 6.2 -6.2 l1.8 -4.9 -2.7 0.6 c-7.2 1.5 -28.7 4.6 -36 5.2 -7.2 0.6 -8.3 0.5 -8.3 -0.9 0 -1.7 0.5 -1.9 16 -3.7 5.2 -0.7 15.2 -2.2 22.3 -3.5 l12.7 -2.2 0 2.6 c-0.1 1.4 -1.1 5.5 -2.3 9 l-2.2 6.4 -6.3 1.8 c-14 3.7 -29.8 13.8 -38.1 24.2 -3.6 4.6 -8.1 13.1 -10 18.9 -1.1 3.4 -1.5 3.7 -8.9 5.7 -8.4 2.2 -19.1 4.1 -23.4 4.1 -2.1 0 -2.8 -0.5 -2.8 -1.9z"/>
  <path d="M336.8 567.3 c1.2 -0.2 3 -0.2 4 0 0.9 0.3 -0.1 0.5 -2.3 0.4 -2.2 0 -3 -0.2 -1.7 -0.4z"/>
  <path d="M284.2 556.9 c-0.2 -7.8 0 -8.8 2.1 -10.5 2.2 -1.9 2.2 -1.9 0.5 0.1 -1.2 1.5 -1.8 4.4 -2.1 10.5 l-0.3 8.5 -0.2 -8.6z"/>
  <path d="M8.3 559.5 c0 -2.2 0.2 -3 0.4 -1.7 0.2 1.2 0.2 3 0 4 -0.3 0.9 -0.5 -0.1 -0.4 -2.3z"/>
  <path d="M393.2 550 c0 -1.9 0.2 -2.7 0.5 -1.7 0.2 0.9 0.2 2.5 0 3.5 -0.3 0.9 -0.5 0.1 -0.5 -1.8z"/>
  <path d="M6.3 544 c0 -4.1 0.2 -5.8 0.4 -3.7 0.2 2 0.2 5.4 0 7.5 -0.2 2 -0.4 0.3 -0.4 -3.8z"/>
  <path d="M393.3 540 c0 -2.5 0.2 -3.5 0.4 -2.2 0.2 1.2 0.2 3.2 0 4.5 -0.2 1.2 -0.4 0.2 -0.4 -2.3z"/>
  <path d="M137.5 538.4 c-7 -5.3 -13.5 -8.5 -24.3 -12 l-7.9 -2.5 -2.2 -7.2 c-2.8 -9.4 -2.7 -10.9 0.2 -10.2 6.1 1.5 32.6 5.5 42.7 6.5 16.4 1.6 18 1.9 18 3.5 0 1.1 -1.1 1.5 -3.7 1.5 -7.3 -0.1 -44.9 -4.9 -52.1 -6.7 -2.3 -0.5 -2.4 -0.4 -1.8 2 1.3 5.5 2.6 7.6 4.8 8.2 8.2 2.2 16.8 5.9 16.8 7.1 0 0.9 1.1 1.4 2.9 1.4 1.6 0 3.6 0.7 4.5 1.5 0.8 0.8 2 1.5 2.6 1.5 0.6 0 1.3 0.6 1.6 1.4 0.3 0.8 1.4 1.6 2.5 1.9 1.4 0.4 1.9 1.4 1.9 3.6 0 1.7 -0.1 3.1 -0.2 3.1 -0.2 0 -3 -2.1 -6.3 -4.6z"/>
  <path d="M62.7 533.3 c-1.4 -1.4 -0.6 -2.3 2.1 -2.2 2.3 0.2 2.4 0.2 0.4 0.6 -1.2 0.2 -2 0.9 -1.7 1.4 0.7 1 0.1 1.2 -0.8 0.2z"/>
  <path d="M56 522 c-9.8 -5.1 -23.4 -9.5 -34.3 -11 -10.8 -1.5 -11.4 -2.2 -9.6 -12.1 1.4 -8.1 0.9 -8 15.7 -4.8 16.8 3.6 46.2 16 46.2 19.5 0 2.2 -2.8 8.6 -4.7 10.6 -2.3 2.6 -4.9 2.2 -13.3 -2.2z m12 -4.2 l1.9 -3.2 -3.4 -1.4 c-1.9 -0.8 -3.5 -1.8 -3.5 -2.3 0 -0.5 -0.7 -0.9 -1.5 -0.9 -2 0 -8.5 -3.2 -8.5 -4.2 0 -0.4 -1.1 -0.8 -2.5 -0.8 -1.4 0 -2.5 -0.4 -2.5 -1 0 -0.5 -0.8 -1 -1.7 -1 -1 0 -4.7 -0.9 -8.3 -2.1 -9.3 -2.9 -20.2 -5.1 -21.1 -4.2 -0.4 0.5 -1 2.9 -1.4 5.6 l-0.7 4.7 4.1 0 c9.5 0 27.3 5 38.6 10.8 3.3 1.7 6.6 3.1 7.3 3.2 0.7 0 2.1 -1.4 3.2 -3.2z"/>
  <path d="M332.1 525.3 c-1.4 -0.6 -6.1 -9.8 -6.1 -12.1 0 -1.6 19.7 -11.1 30.4 -14.7 8.9 -3 23.8 -6.4 27.7 -6.5 2.3 0 2.7 0.6 3.7 5.1 1.5 6.5 1.5 10.4 0 11.7 -0.7 0.5 -5.8 1.7 -11.3 2.6 -9.3 1.4 -18.9 4.2 -27.7 8 -3.8 1.6 -3.8 1.6 -3.8 -0.8 0 -2 1 -2.8 6.4 -5 7.1 -2.8 24.3 -6.6 30.1 -6.6 l3.8 0 -0.6 -4.6 c-0.2 -2.5 -0.9 -5 -1.4 -5.5 -2.3 -2.3 -24.7 4.4 -41.5 12.3 -10.3 4.9 -10.7 5.2 -10.1 7.7 0.8 3.6 1.9 4 7.5 3.4 5.8 -0.7 6.2 0.6 0.9 3.5 -3.9 2.2 -5.4 2.5 -8 1.5z"/>
  <path d="M192 518 c0 -1.8 0.7 -2 7.5 -2 6.8 0 7.5 0.2 7.5 2 0 1.8 -0.7 2 -7.5 2 -6.8 0 -7.5 -0.2 -7.5 -2z"/>
  <path d="M167 517 c0 -1.7 0.7 -2 5.3 -2 6.6 0 9.7 0.9 9.7 2.6 0 1.1 -1.8 1.4 -7.5 1.4 -6.8 0 -7.5 -0.2 -7.5 -2z"/>
  <path d="M222 517.6 c0 -1.7 3.1 -2.6 9.3 -2.6 4 0 4.7 0.3 4.7 2 0 1.8 -0.7 2 -7 2 -5.3 0 -7 -0.3 -7 -1.4z"/>
  <path d="M12 517 c0 -0.6 -1.2 -2.2 -2.7 -3.6 l-2.8 -2.5 3.3 2.2 c2.7 1.9 4.4 4.9 2.7 4.9 -0.3 0 -0.5 -0.5 -0.5 -1z"/>
  <path d="M237 516.6 c0 -1.5 3 -2.6 7.3 -2.6 2 0 2.7 0.5 2.7 2 0 1.7 -0.7 2 -5 2 -3.6 0 -5 -0.4 -5 -1.4z"/>
  <path d="M173 510.3 c-1.3 -0.3 -1.5 -5.5 -1.2 -41.1 0.3 -38.5 0.9 -48.2 3.2 -48.2 0.6 0 1 -0.6 1 -1.3 0 -0.8 0.9 -2.2 2 -3.2 1.1 -1 2 -2.6 2 -3.6 0 -1.6 0.4 -1.7 3 -0.8 3.9 1.4 3.8 2.8 -0.6 7 -6.5 6.1 -6.4 5.6 -6.4 50.3 0 22.3 -0.3 40.7 -0.7 40.9 -0.5 0.2 -1.5 0.2 -2.3 0z"/>
  <path d="M218 509 c0 -1.8 0.7 -2 6.5 -2 4.9 0 6.5 0.3 6.5 1.4 0 1.7 -3.1 2.6 -8.7 2.6 -3.6 0 -4.3 -0.3 -4.3 -2z"/>
  <path d="M158.8 509.3 c-1 -0.2 -1.8 -1.1 -1.8 -1.9 0 -1 1.3 -1.4 5 -1.4 4.3 0 5 0.3 5 2 0 1.6 -0.6 2 -3.2 1.9 -1.8 -0.1 -4.1 -0.3 -5 -0.6z"/>
  <path d="M234 508 c0 -1.7 0.7 -2 5 -2 3.6 0 5 0.4 5 1.4 0 1.5 -3 2.6 -7.2 2.6 -2.1 0 -2.8 -0.5 -2.8 -2z"/>
  <path d="M136 507 c-24.8 -3.3 -36 -5.7 -36 -7.6 0 -1.9 2.3 -1.8 18 1 7.4 1.3 18.8 3 25.3 3.7 10.1 1.1 11.7 1.5 11.7 3.1 0 2.2 -1 2.2 -19 -0.2z"/>
  <path d="M245 507 c0 -1.6 0.7 -2 3.3 -2 4.8 0 24 -2.6 37.3 -5.1 l11.4 -2.1 0 -5.4 c0 -4 0.4 -5.4 1.4 -5.4 3.3 0 3.1 13.4 -0.2 14.4 -6.7 1.9 -45.2 7.6 -51.4 7.6 -1.1 0 -1.8 -0.7 -1.8 -2z"/>
  <path d="M305.4 492.5 c0 -5.5 0.1 -7.6 0.3 -4.7 0.2 2.9 0.2 7.4 0 10 -0.2 2.6 -0.3 0.2 -0.3 -5.3z"/>
  <path d="M86.4 474 c0 -5.2 0.1 -7.4 0.3 -4.7 0.2 2.6 0.2 6.8 0 9.5 -0.2 2.6 -0.3 0.4 -0.3 -4.8z"/>
  <path d="M95.3 476.5 c0 -2.2 0.2 -3 0.4 -1.7 0.2 1.2 0.2 3 0 4 -0.3 0.9 -0.5 -0.1 -0.4 -2.3z"/>
  <path d="M313.3 473 c0 -4.1 0.2 -5.8 0.4 -3.7 0.2 2 0.2 5.4 0 7.5 -0.2 2 -0.4 0.3 -0.4 -3.8z"/>
  <path d="M15.1 472.5 c0 -0.5 0.8 -2.6 1.9 -4.5 1.1 -1.9 1.9 -3 1.9 -2.5 0 0.6 -0.8 2.6 -1.9 4.5 -1.1 1.9 -1.9 3.1 -1.9 2.5z"/>
  <path d="M102 465.3 c0 -1.3 2.7 -17.2 4.9 -29.3 3.3 -17.8 12.3 -59.4 13.1 -60.3 0.8 -0.9 27.4 1.3 29.2 2.4 0.7 0.4 -0.3 2.9 -2.6 6.9 -2 3.4 -3.8 6.6 -3.9 7.1 -0.1 0.5 7.6 4.6 17.2 9.2 9.6 4.5 17.6 8.8 17.9 9.5 0.7 2.1 -5.6 1.3 -11.1 -1.4 -2.9 -1.5 -5.3 -3 -5.5 -3.5 -0.2 -0.5 -1.1 -0.9 -2 -0.9 -0.9 0 -5.8 -1.9 -10.9 -4.2 l-9.2 -4.3 -0.1 -4.2 c0 -2.4 0.4 -4.3 0.9 -4.3 0.5 0 1.2 -1.1 1.5 -2.5 0.4 -1.4 1.3 -2.5 2.1 -2.5 3.3 0 1.2 -1.8 -2.7 -2.3 -14.4 -2 -17.6 -2 -18.2 -0.1 -1.7 5.8 -11 50.6 -13.7 66.7 -2.8 16.2 -3.5 18.7 -5.1 18.7 -1 0 -1.8 -0.3 -1.8 -0.7z"/>
  <path d="M292.6 454.8 c-1.9 -12.2 -7.9 -42.6 -12.4 -62.8 l-2.8 -12.5 -8.7 0.3 c-7.4 0.3 -8.7 0.1 -8.7 -1.2 0 -0.9 0.1 -1.6 0.3 -1.6 14.2 -2.1 19.9 -2.5 20.2 -1.6 3.3 11.4 17.5 83.9 17.5 89.5 0 0.6 -0.8 1.1 -1.8 1.1 -1.5 0 -2.1 -1.7 -3.6 -11.2z"/>
  <path d="M183.6 441.6 c-0.7 -3 0.7 -11.1 2.4 -13.1 1.4 -1.7 11.9 -7.8 16.3 -9.4 2.4 -1 2.7 -0.8 2.7 1.2 0 1.7 -1.1 2.8 -4.5 4.5 -2.5 1.2 -5.4 2.2 -6.5 2.2 -1.1 0 -2 0.7 -2 1.5 0 0.7 -0.6 1.8 -1.4 2.2 -2.2 1.3 -3.6 4.9 -3.6 9.2 0 4.6 -2.4 5.8 -3.4 1.7z"/>
  <path d="M92.5 437.3 c1.4 -2.9 2 -3.3 5.5 -3.3 3.5 0 4 0.3 3.9 2.3 -0.1 1.6 -0.2 1.8 -0.6 0.5 -0.3 -1.3 -1.5 -1.8 -3.9 -1.8 -1.9 0 -3.4 0.4 -3.4 0.8 0 0.5 -0.7 1.7 -1.5 2.8 -1.4 1.7 -1.4 1.5 0 -1.3z"/>
  <path d="M298.3 436 c0.4 -1.7 6.4 -2.7 7.8 -1.3 0.5 0.5 -0.7 0.7 -2.7 0.5 -2.4 -0.3 -4 0 -4.6 0.9 -0.8 1.2 -0.9 1.1 -0.5 -0.1z"/>
  <path d="M348.2 430.3 c-1.2 -2.7 -1.1 -2.7 0.4 -0.6 1.2 1.7 2.3 2.1 4.7 1.8 2.9 -0.4 2.9 -0.4 0.7 0.4 -4 1.4 -4.6 1.3 -5.8 -1.6z"/>
  <path d="M209.2 416.8 c0.3 -0.7 11.1 -6.2 24.1 -12.3 13 -6 23.7 -11.4 23.6 -12 0 -0.5 -1.7 -3.9 -3.9 -7.5 -4.3 -7 -4.1 -7.8 2.3 -7.9 2.1 -0.1 2.7 0.4 2.7 1.9 0 1.2 -0.7 2 -1.6 2 -1.4 0 -1.4 0.1 0 1.6 0.9 0.8 1.6 2 1.6 2.5 0 0.6 0.7 1.7 1.5 2.5 0.8 0.9 1.5 3.1 1.5 5 0 3 -0.3 3.4 -2.5 3.4 -1.4 0 -2.5 0.6 -2.5 1.3 0 1.4 -6 4.7 -8.5 4.7 -0.7 0 -1.5 0.4 -1.7 0.8 -0.6 1.5 -14 7.2 -16.9 7.2 -1.7 0 -2.9 0.5 -2.9 1.3 0 0.7 -2.5 2.5 -5.5 4 -5.9 2.9 -12 3.6 -11.3 1.5z"/>
  <path d="M338.3 397 c0 -2.5 0.2 -3.5 0.4 -2.2 0.2 1.2 0.2 3.2 0 4.5 -0.2 1.2 -0.4 0.2 -0.4 -2.3z"/>
  <path d="M319.5 366.4 c-2.2 -1.3 -3.5 -2.4 -3 -2.4 1.2 0 7.5 3.8 7.5 4.5 0 0.6 0.2 0.7 -4.5 -2.1z"/>
  <path d="M95.3 361.3 c1.5 -0.2 3.9 -0.2 5.5 0 1.5 0.2 0.2 0.4 -2.8 0.4 -3 0 -4.3 -0.2 -2.7 -0.4z"/>
  <path d="M298.8 361.3 c1.8 -0.2 4.5 -0.2 6 0 1.5 0.2 0 0.4 -3.3 0.4 -3.3 0 -4.5 -0.2 -2.7 -0.4z"/>
  <path d="M167.8 357.3 c-1 -0.2 -1.8 -1.1 -1.8 -1.9 0 -1.1 1.5 -1.4 6.5 -1.4 5.8 0 6.5 0.2 6.5 2 0 1.7 -0.6 2 -4.7 1.9 -2.7 -0.1 -5.6 -0.3 -6.5 -0.6z"/>
  <path d="M223 356 c0 -1.8 0.7 -2 7 -2 5.3 0 7 0.3 7 1.4 0 1.7 -3.1 2.6 -9.2 2.6 -4.1 0 -4.8 -0.3 -4.8 -2z"/>
  <path d="M152.8 356.3 c-1 -0.2 -1.8 -1.1 -1.8 -1.9 0 -1 1.3 -1.4 5 -1.4 4.3 0 5 0.3 5 2 0 1.6 -0.6 2 -3.2 1.9 -1.8 -0.1 -4.1 -0.3 -5 -0.6z"/>
  <path d="M240 355 c0 -1.7 0.7 -2 5 -2 3.6 0 5 0.4 5 1.4 0 1.5 -3 2.6 -7.2 2.6 -2.1 0 -2.8 -0.5 -2.8 -2z"/>
  <path d="M135.5 354.5 c-20.1 -3 -39.6 -9.5 -51.1 -17.1 -11.2 -7.5 -21.1 -19.9 -25.9 -32.9 -3 -7.8 -3.1 -9.5 -0.7 -9.5 1.3 0 2.2 1.2 3 3.9 0.7 2.1 1.2 4.4 1.2 5 0 0.7 0.7 1.9 1.5 2.7 0.8 0.9 1.5 2.6 1.5 4 0 1.5 0.6 2.4 1.5 2.4 0.8 0 1.5 0.7 1.5 1.5 0 0.8 0.5 1.5 1 1.5 0.6 0 1 0.7 1 1.5 0 0.8 0.5 1.5 1 1.5 0.6 0 1 1.4 1 3 0 2.5 0.4 3 2.3 3 2.8 0 4.7 1.7 4.7 4.2 0 1.3 0.8 1.8 2.5 1.8 1.4 0 2.5 0.5 2.5 1 0 0.6 0.6 1 1.3 1 0.7 0 2.2 0.8 3.3 1.8 1 1 3.4 2.4 5.2 3.1 1.7 0.7 3.2 1.7 3.2 2.2 0 0.5 0.9 0.9 1.9 0.9 1.1 0 3.9 0.9 6.4 1.9 6.7 2.9 23.2 6.8 34.6 8.2 8.6 1.1 10.1 1.6 10.1 3.1 0 2.1 -1.5 2.2 -14.5 0.3z"/>
  <path d="M251 354.3 c0 -1.5 1.9 -2.1 12.3 -3.5 6.7 -1 16.3 -2.9 21.2 -4.4 8.9 -2.5 26.7 -10.1 27.3 -11.6 0.2 -0.5 1 -0.8 1.7 -0.8 0.7 0 1.5 -0.7 1.9 -1.5 0.3 -0.8 0.9 -1.5 1.4 -1.5 1.2 0 10.9 -9.7 11.6 -11.6 0.3 -0.8 1 -1.4 1.6 -1.4 0.5 0 1 -0.7 1 -1.5 0 -0.8 0.4 -1.5 0.9 -1.5 0.5 0 1.2 -1.1 1.5 -2.5 0.4 -1.4 1.1 -2.5 1.6 -2.5 0.6 0 1 -0.5 1 -1.1 0 -0.7 1 -3.8 2.3 -7 1.6 -4.3 2.7 -5.9 4.1 -5.9 1.6 0 1.8 0.5 1.2 3.3 -0.9 5.1 -8.1 18.6 -13.1 25 -11.9 15 -35.8 26 -65.6 30.2 -13.7 1.9 -13.9 1.9 -13.9 -0.2z"/>
  <path d="M70.5 332.8 l-5 -5.3 5.3 5 c4.8 4.6 5.7 5.5 4.9 5.5 -0.1 0 -2.5 -2.4 -5.2 -5.2z"/>
  <path d="M170 333 c0 -1.8 0.7 -2 5.8 -2 7.1 0 10.2 0.8 10.2 2.6 0 1.1 -1.9 1.4 -8 1.4 -7.3 0 -8 -0.2 -8 -2z"/>
  <path d="M213 333.6 c0 -1.7 3.1 -2.6 9.3 -2.6 4 0 4.7 0.3 4.7 2 0 1.8 -0.7 2 -7 2 -5.3 0 -7 -0.3 -7 -1.4z"/>
  <path d="M155 332 c0 -1.6 0.7 -2 3.3 -2 4.7 0 7.7 1 7.7 2.6 0 1 -1.5 1.4 -5.5 1.4 -4.8 0 -5.5 -0.2 -5.5 -2z"/>
  <path d="M233 332.6 c0 -1.6 3 -2.6 7.8 -2.6 2.5 0 3.2 0.4 3.2 2 0 1.8 -0.7 2 -5.5 2 -4 0 -5.5 -0.4 -5.5 -1.4z"/>
  <path d="M140 331.9 c-18.6 -2.9 -38 -8.5 -38 -11 0 -0.5 -0.7 -0.9 -1.5 -0.9 -0.8 0 -1.5 -0.4 -1.5 -0.9 0 -0.5 -0.9 -1.1 -2 -1.4 -1.5 -0.4 -2 -1.4 -2 -3.7 l0 -3.2 4.9 3.6 c9.1 6.7 21.8 11 40.1 13.6 13.4 1.9 14 2 14 3.5 0 1.7 -4.9 1.8 -14 0.4z"/>
  <path d="M245 331.5 c0 -1.5 0.7 -1.7 15 -3.5 26.3 -3.4 43.6 -12.2 52.7 -26.5 1.5 -2.5 3.1 -4.5 3.6 -4.5 0.4 0 0.7 1.6 0.7 3.5 0 1.9 -0.4 3.5 -1 3.5 -0.5 0 -1 0.7 -1 1.5 0 0.8 -0.7 1.5 -1.5 1.5 -0.8 0 -1.5 0.8 -1.5 1.8 0 2.2 -4 6.2 -6.2 6.2 -0.9 0 -1.8 0.9 -2.1 2 -0.3 1.4 -1.4 2 -3.1 2 -1.5 0 -2.6 0.6 -2.6 1.4 0 3.1 -17.9 8.6 -35.8 11.1 -14.2 1.9 -17.2 1.9 -17.2 0z"/>
  <path d="M56.5 313.9 c-0.9 -1.7 -1.5 -3.3 -1.3 -3.5 0.3 -0.2 1.2 1.2 2.1 3.1 2.1 4.3 1.3 4.7 -0.8 0.4z"/>
  <path d="M84.7 305 c-0.6 -1.6 -1.4 -3 -1.8 -3 -2.1 0 -7.5 -18.7 -8.5 -29.6 -0.6 -6.3 -0.4 -7.4 0.9 -7.4 1.6 0 2.1 1.7 3.3 10.5 1.1 8.4 5.2 19.8 9.4 26.3 l4 6.2 -3.1 0 c-2.5 0 -3.3 -0.6 -4.2 -3z"/>
  <path d="M318.1 290.3 c3.1 -9.1 5.1 -24.5 5.1 -40.5 0 -13.9 0.1 -14.8 1.9 -14.8 1.8 0 1.9 0.9 1.9 13.8 0 14.8 -1.9 31.7 -4.6 41.2 -1.4 5.1 -2 6 -4 6 l-2.3 0 2 -5.7z"/>
  <path d="M30.5 287.8 l-4 -4.3 4.3 4 c2.3 2.1 4.2 4 4.2 4.2 0 0.8 -0.9 0 -4.5 -3.9z"/>
  <path d="M73.3 245.8 c0.3 -10.1 1 -21 1.7 -24.3 1.8 -9.5 5 -18.5 6.6 -18.5 0.9 0 1.4 -1.1 1.4 -2.8 0 -1.6 0.6 -3.7 1.4 -4.7 1.1 -1.6 1.1 -2.5 -0.2 -6.4 -0.9 -2.5 -3 -10 -4.7 -16.6 -2.3 -8.7 -3.7 -12.1 -4.9 -12.3 -1.1 -0.2 -1.6 0.3 -1.6 1.7 0 1.2 -0.4 2.1 -1 2.1 -0.5 0 -1 0.7 -1 1.5 0 0.8 -0.4 1.5 -1 1.5 -0.5 0 -1 0.7 -1 1.5 0 0.8 -0.4 1.5 -0.8 1.5 -0.4 0 -1.4 1.6 -2.1 3.5 -0.7 1.9 -1.7 3.5 -2.2 3.5 -0.5 0 -0.9 0.7 -0.9 1.6 0 0.9 -0.8 3.8 -1.7 6.5 -1.2 3.4 -2.3 4.9 -3.5 4.9 -2.6 0 -2.2 -2.4 1.6 -11.7 4.7 -11.5 17.3 -29.2 18.9 -26.6 0.2 0.4 1.2 4.2 2.1 8.3 0.9 4.1 3.5 13.7 5.8 21.3 l4.1 13.7 -2.8 4.1 c-7.1 10.8 -10.6 27 -10.6 49.7 0 14.7 -0.1 15.2 -2.1 15.2 -2 0 -2.1 -0.2 -1.5 -18.2z"/>
  <path d="M17.3 251.5 c0 -2.2 0.2 -3 0.4 -1.7 0.2 1.2 0.2 3 0 4 -0.3 0.9 -0.5 -0.1 -0.4 -2.3z"/>
  <path d="M17.2 234 c0 -1.9 0.2 -2.7 0.5 -1.7 0.2 0.9 0.2 2.5 0 3.5 -0.3 0.9 -0.5 0.1 -0.5 -1.8z"/>
  <path d="M322.6 231.3 c-0.2 -1.6 -0.8 -5 -1.1 -7.6 -0.9 -6.5 -3.8 -14.8 -8 -22.5 l-3.6 -6.4 2.7 -8.6 c1.5 -4.8 4.1 -14.5 5.9 -21.5 1.8 -7 3.6 -12.8 4.1 -12.9 1.8 -0.3 11.5 13 15.9 21.8 5.6 11.3 6.6 15.4 3.8 15.4 -1.9 0 -4.3 -4.6 -4.3 -8.3 0 -0.9 -0.4 -1.7 -0.8 -1.7 -0.5 0 -1.7 -1.9 -2.8 -4.2 -1 -2.4 -2.4 -4.9 -3.1 -5.6 -0.7 -0.7 -1.3 -2.2 -1.3 -3.3 0 -1 -0.7 -1.9 -1.5 -1.9 -0.9 0 -1.5 -0.9 -1.5 -2.1 0 -1.4 -0.5 -1.9 -1.7 -1.7 -1.1 0.2 -2.1 2.1 -2.9 5.9 -0.7 3 -2.6 10.2 -4.3 15.8 -3.1 10.5 -3.8 15.1 -2.2 15.1 1.1 0 6 11.1 7.7 17.4 0.8 2.8 1.7 8.4 2 12.4 0.6 6.1 0.4 7.2 -0.9 7.2 -0.9 0 -1.8 -1.1 -2.1 -2.7z"/>
  <path d="M30.5 198 c2.1 -2.2 4.1 -4 4.4 -4 0.3 0 -1.3 1.8 -3.4 4 -2.1 2.2 -4.1 4 -4.4 4 -0.3 0 1.3 -1.8 3.4 -4z"/>
  <path d="M90.6 178.8 c-3.9 -12.6 -7.6 -27.2 -7.6 -30.4 0 -1.1 1 -3 2.3 -4.2 2.3 -2.2 18.5 -12.2 19.7 -12.2 0.4 0 2.5 1.4 4.6 3.1 8.4 6.7 19.5 10.8 34.9 12.9 13.9 1.8 14.5 2 14.5 3.7 0 1.4 -1 1.5 -7.7 0.9 -10 -0.9 -27.7 -4.5 -28.1 -5.7 -0.2 -0.5 -1.2 -0.9 -2.3 -0.9 -2.3 0 -11.9 -4.7 -11.9 -5.8 0 -0.4 -1.1 -1.2 -2.3 -1.8 -2.5 -1.1 -5.9 -0.2 -8.5 2.3 -0.7 0.7 -2 1.3 -2.8 1.3 -0.8 0 -1.4 0.5 -1.4 1 0 0.6 -0.6 1 -1.4 1 -0.8 0 -1.6 0.7 -2 1.5 -0.3 0.8 -1.2 1.5 -2.1 1.5 -0.8 0 -1.5 0.7 -1.5 1.6 0 3 8.4 34.1 9.6 35.3 0.1 0.2 1 -0.4 1.9 -1.3 0.9 -0.9 2.5 -1.6 3.6 -1.6 1 0 1.9 -0.4 1.9 -1 0 -2 17.7 -6.2 36.2 -8.5 15.7 -1.9 19.8 -1.9 19.8 0 0 1.5 -2.3 2.1 -13.5 3 -19.3 1.7 -37.6 6.5 -46.1 12.1 -2.8 1.9 -5.4 3.4 -5.7 3.4 -0.4 0 -2.2 -5.1 -4.1 -11.2z"/>
  <path d="M301.9 188.1 c-8.5 -6.6 -26.6 -11.7 -48.4 -13.6 -11.2 -0.9 -13.5 -1.5 -13.5 -3 0 -1.8 3.7 -1.9 16.5 -0.5 22.7 2.5 42.9 7.9 45.7 12.4 0.4 0.6 0.9 0.8 1.1 0.6 0.9 -1 4.7 -13.8 7.2 -24 1.5 -5.8 2.8 -11.3 3.1 -12.2 0.4 -1.4 -0.1 -1.8 -2 -1.8 -1.4 0 -2.6 -0.4 -2.6 -1 0 -0.5 -0.6 -1 -1.3 -1 -0.7 0 -2.2 -0.8 -3.3 -1.7 -1 -1 -3.6 -2.6 -5.6 -3.5 -3.2 -1.5 -3.8 -1.5 -4.8 -0.2 -0.7 0.7 -1.9 1.4 -2.6 1.4 -0.8 0 -1.4 0.4 -1.4 1 0 0.5 -1.2 1.3 -2.7 1.6 -1.5 0.4 -3.4 1.3 -4.1 2 -1.8 1.9 -13.1 5.1 -24.2 6.9 -12.2 1.9 -17 2 -17 0 0 -1.5 0.6 -1.6 14 -3.5 15.8 -2.3 28.3 -7 34.8 -13.3 l3.2 -3.1 4.7 2.3 c4.9 2.4 13.1 7.7 17 11 l2.2 1.8 -3 12.4 c-3.4 14.2 -8.7 30.9 -9.8 30.9 -0.5 0 -1.9 -0.8 -3.2 -1.9z"/>
  <path d="M56 172.6 c0 -1.1 3 -6.6 3.6 -6.6 0.2 0 -0.3 1.5 -1.2 3.3 -1.9 3.6 -2.4 4.4 -2.4 3.3z"/>
  <path d="M164 171 c0 -1.8 0.7 -2 7 -2 5.3 0 7 0.3 7 1.4 0 1.7 -3.1 2.6 -9.2 2.6 -4.1 0 -4.8 -0.3 -4.8 -2z"/>
  <path d="M224.8 172.3 c-1 -0.2 -1.8 -1.1 -1.8 -1.9 0 -1.1 1.5 -1.4 6.5 -1.4 5.8 0 6.5 0.2 6.5 2 0 1.7 -0.6 2 -4.7 1.9 -2.7 -0.1 -5.6 -0.3 -6.5 -0.6z"/>
  <path d="M194 170 c0 -1.8 0.7 -2 6.5 -2 5.8 0 6.5 0.2 6.5 2 0 1.8 -0.7 2 -6.5 2 -5.8 0 -6.5 -0.2 -6.5 -2z"/>
  <path d="M178 153 c0 -1.9 0.7 -2 22.5 -2 21.8 0 22.5 0.1 22.5 2 0 1.9 -0.7 2 -22.5 2 -21.8 0 -22.5 -0.1 -22.5 -2z"/>
  <path d="M161 152 c0 -1.6 0.7 -2 3.3 -2 4.7 0 7.7 1 7.7 2.6 0 1 -1.5 1.4 -5.5 1.4 -4.8 0 -5.5 -0.2 -5.5 -2z"/>
  <path d="M230 152.6 c0 -1.6 3 -2.6 7.8 -2.6 2.5 0 3.2 0.4 3.2 2 0 1.8 -0.7 2 -5.5 2 -4 0 -5.5 -0.4 -5.5 -1.4z"/>
  <path d="M325.5 146.8 l-4 -4.3 4.3 4 c3.9 3.6 4.7 4.5 3.9 4.5 -0.2 0 -2.1 -1.9 -4.2 -4.2z"/>
  <path d="M97 130.6 c0 -0.3 1.4 -1.2 3 -2.1 1.7 -0.9 3 -1.3 3 -1.1 0 0.3 -1.3 1.2 -3 2.1 -1.6 0.9 -3 1.3 -3 1.1z"/>
  <path d="M297.4 117 c0 -5.2 0.1 -7.4 0.3 -4.7 0.2 2.6 0.2 6.8 0 9.5 -0.2 2.6 -0.3 0.4 -0.3 -4.8z"/>
  <path d="M102 112.8 c-0.3 -3.1 -0.1 -5.3 0.3 -4.9 0.5 0.5 0.7 3 0.5 5.7 l-0.3 4.9 -0.5 -5.7z"/>
  <path d="M97 99.4 c-7.9 -5.2 -10.9 -8.2 -13.6 -13.9 -3 -6.3 -3.1 -9.5 -0.4 -9.5 1.6 0 2.1 0.9 2.6 4.9 0.5 3.7 1.1 5.1 2.5 5.4 1.1 0.3 1.9 1.4 1.9 2.6 0 1.4 0.6 2.1 2 2.1 1 0 2.3 0.6 2.7 1.3 0.4 0.6 2 1.8 3.5 2.6 2.3 1.2 2.9 1.1 4.9 -0.3 1.3 -0.9 3.4 -1.6 4.6 -1.6 1.3 0 2.3 -0.6 2.3 -1.3 0 -1.5 4.1 -3.7 6.6 -3.7 0.9 0 2.2 -0.6 2.9 -1.4 3.5 -3.5 35.3 -12.9 48 -14.2 5.6 -0.6 6.5 -0.5 6.5 1 0 0.9 -0.2 1.6 -0.4 1.6 -0.3 0 -5.3 0.9 -11.2 2.1 -24.7 4.7 -58.4 18.9 -58.4 24.5 0 2.1 -1 1.8 -7 -2.2z"/>
  <path d="M295.6 100.5 c-1.4 -5.5 -35 -19 -58.3 -23.5 -5.7 -1.1 -10.6 -2 -10.9 -2 -0.2 0 -0.4 -0.7 -0.4 -1.5 0 -2.1 4.1 -1.9 15.8 0.5 19.4 3.9 50.2 15.4 50.2 18.6 0 0.8 1.1 1.4 2.5 1.4 1.4 0 2.5 0.5 2.5 1.1 0 1.6 6.2 0.2 7.3 -1.6 0.4 -0.8 1.9 -1.5 3.2 -1.5 2 0 2.5 -0.5 2.5 -2.5 0 -1.4 0.6 -2.8 1.4 -3.1 0.7 -0.3 1.9 -2.3 2.6 -4.5 0.9 -2.6 1.9 -3.9 3.2 -3.9 3.6 0 1.1 7.4 -4.7 13.9 -3.1 3.4 -14 11.1 -15.8 11.1 -0.3 0 -0.8 -1.1 -1.1 -2.5z"/>
  <path d="M324.3 76 c0 -3 0.2 -4.3 0.4 -2.7 0.2 1.5 0.2 3.9 0 5.5 -0.2 1.5 -0.4 0.2 -0.4 -2.8z"/>
  <path d="M75.3 75.5 c0 -2.2 0.2 -3 0.4 -1.7 0.2 1.2 0.2 3 0 4 -0.3 0.9 -0.5 -0.1 -0.4 -2.3z"/>
  <path d="M81 72.8 c0 -2.8 3.5 -10.1 6 -12.3 2 -1.8 2 -1.7 2 1.8 0 2.1 -0.4 3.7 -0.9 3.7 -0.5 0 -1.5 2 -2.2 4.5 -0.9 3.2 -1.9 4.5 -3.1 4.5 -1.2 0 -1.8 -0.8 -1.8 -2.2z"/>
  <path d="M313.1 68.8 c-1.3 -2.8 -4.1 -6.6 -6.2 -8.5 -2.2 -2 -3.9 -4.2 -3.9 -4.9 0 -0.8 -0.9 -1.4 -2.1 -1.4 -1.2 0 -2.3 -0.8 -2.6 -2 -0.3 -1.1 -1.4 -2 -2.4 -2 -1.1 0 -1.9 -0.4 -1.9 -1 0 -0.5 -0.7 -1 -1.5 -1 -0.9 0 -1.8 -0.7 -2.1 -1.5 -0.4 -0.8 -1.2 -1.5 -2 -1.5 -0.8 0 -1.4 -0.7 -1.4 -1.5 0 -0.9 -0.9 -1.5 -2.4 -1.5 -1.3 0 -2.6 -0.3 -2.8 -0.7 -0.1 -0.5 -2.7 -1.9 -5.5 -3.2 -4.2 -1.9 -5.3 -2.9 -5.3 -4.8 0 -2.9 0 -2.9 6.1 0.2 12.1 6.2 30.5 19.7 35.8 26.4 5.4 6.8 7.7 14.1 4.4 14.1 -1.2 -0.1 -2.7 -2 -4.2 -5.2z"/>
  <path d="M312.5 52.8 l-6 -6.3 6.3 6 c5.8 5.5 6.7 6.5 5.9 6.5 -0.1 0 -2.9 -2.8 -6.2 -6.2z"/>
  <path d="M87 52.5 c3 -3 5.7 -5.5 5.9 -5.5 0.3 0 -1.9 2.5 -4.9 5.5 -3 3 -5.7 5.5 -5.9 5.5 -0.3 0 1.9 -2.5 4.9 -5.5z"/>
  <path d="M96.5 51.4 c6.5 -5.8 21.2 -15.1 33 -20.9 18 -8.9 40.9 -15.4 59.8 -17.1 7.4 -0.7 7.7 -0.6 7.7 1.5 0 1.9 -0.6 2.1 -4.9 2.1 -7.8 0 -25 3.7 -37.9 8.1 -6.4 2.2 -12.8 4.3 -14.2 4.6 -1.4 0.3 -2.7 0.9 -3 1.3 -1 1.4 -10.9 6 -13 6 -1.1 0 -2 0.6 -2 1.4 0 0.8 -1 1.8 -2.2 2.2 -1.2 0.3 -2.8 1.3 -3.6 2 -0.7 0.8 -2 1.4 -2.8 1.4 -0.8 0 -1.4 0.5 -1.4 1 0 0.6 -0.7 1 -1.5 1 -0.8 0 -1.5 0.5 -1.5 1 0 0.6 -0.9 1 -2 1 -1.1 0 -2 0.7 -2 1.5 0 0.8 -0.8 1.5 -1.9 1.5 -1 0 -2.1 0.9 -2.4 2 -0.4 1.6 -1.3 2 -4.4 2 l-3.8 -0.1 4 -3.5z"/>
  <path d="M255.5 28.4 c-10.1 -4.2 -23.9 -8.2 -33.2 -9.6 -6 -1 -7.3 -1.5 -7.3 -3 0 -2.2 0.7 -2.2 12.7 0.1 11.3 2.2 27 7.1 36.1 11.2 12.3 5.5 4.8 6.8 -8.3 1.3z"/>
  <path d="M203 15 c0 -1.6 0.7 -2 3.3 -2 4.7 0 7.7 1 7.7 2.6 0 1 -1.5 1.4 -5.5 1.4 -4.8 0 -5.5 -0.2 -5.5 -2z"/>
  <path d="M186.8 8.3 c1.2 -0.2 3.2 -0.2 4.5 0 1.2 0.2 0.2 0.4 -2.3 0.4 -2.5 0 -3.5 -0.2 -2.2 -0.4z"/>
  <path d="M208.3 8.3 c1.5 -0.2 3.7 -0.2 5 0 1.2 0.2 0 0.4 -2.8 0.4 -2.7 0 -3.8 -0.2 -2.2 -0.4z"/>
 </g>
 <g fill="#ebe8d0">
  <path d="M62.4 630 c0 -9.1 0.2 -12.8 0.3 -8.2 0.2 4.5 0.2 11.9 0 16.5 -0.1 4.5 -0.3 0.8 -0.3 -8.3z"/>
  <path d="M190.5 578.4 c-14.1 -1.6 -29.5 -5.6 -29.5 -7.7 0 -0.7 -1.8 -5.1 -4.1 -9.7 -3.3 -6.8 -5.6 -10 -12.2 -16.5 -9.1 -8.9 -16.3 -13.2 -30.1 -18 l-8.9 -3.1 -1.7 -4.9 c-0.9 -2.8 -2 -6.6 -2.4 -8.6 l-0.6 -3.7 6.5 1.4 c30.6 6.4 75.2 9.8 111.5 8.3 24.4 -0.9 37.6 -2.2 60.9 -6 10.1 -1.7 18.5 -2.8 18.7 -2.6 0.6 0.6 -1.4 9.2 -3 13.2 -1.2 2.7 -2.3 3.6 -5.6 4.5 -14.1 3.8 -29 12.7 -38 22.7 -4.3 4.8 -11.1 16.8 -13.3 23.4 -0.4 1.1 -3.5 2.4 -9.4 3.8 -14.3 3.5 -27.8 4.7 -38.8 3.5z"/>
  <path d="M57.5 522.4 c-11.2 -6.3 -25.2 -10.7 -38.1 -12.1 -7.9 -0.9 -8.1 -1.3 -7 -10.7 1.1 -8.2 0.9 -8.1 12.5 -5.7 13.3 2.7 25.9 7 37.3 12.6 12.2 6.1 12.4 6.2 10.3 11.1 -1.9 4.7 -5.3 8.4 -7.4 8.3 -0.9 -0.1 -4.3 -1.6 -7.6 -3.5z"/>
  <path d="M331.3 523.8 c-1.1 -1.3 -2.7 -4.2 -3.6 -6.5 -2 -5.1 -2.4 -4.8 12.3 -11.7 14.2 -6.7 24.8 -10 42.2 -13 3.4 -0.6 3.7 -0.5 4.6 2.6 3.6 11.7 2.6 14.3 -6 15.2 -11.6 1.2 -23.1 4.5 -34.5 10.1 -6.2 3 -11.6 5.5 -12.1 5.5 -0.5 0 -1.8 -1 -2.9 -2.2z"/>
  <path d="M184 472.2 c0 -25.3 0.4 -39.9 1.1 -41.4 1.6 -3.6 5.8 -6 30 -17.4 46.9 -22.1 43.3 -20.1 41.7 -22.7 -3.7 -5.7 -7 -11.8 -6.6 -12.2 0.2 -0.3 4.9 -0.9 10.4 -1.5 5.4 -0.6 12 -1.3 14.5 -1.6 4 -0.5 4.8 -0.4 5.2 1.2 3.4 11.2 18.3 88.1 17.4 89.1 -0.6 0.5 -26.4 4.4 -35.8 5.4 -6.3 0.7 -11.7 1.5 -12.1 1.8 -0.4 0.4 -0.4 4.2 0 8.6 l0.7 8 6.5 -0.3 c6.2 -0.3 35 -4.4 40.4 -5.8 l2.6 -0.6 0 9 0 9 -11.2 2.1 c-25.3 4.7 -49.1 7 -80 7.8 l-24.8 0.6 0 -39.1z m27.4 18.7 c4.4 -5.2 3.3 -12.5 -2.4 -15.4 -3.8 -1.9 -6.5 -1.9 -10 0.2 -9 5.3 -5.2 18.3 5.3 18.3 3.8 0 4.9 -0.5 7.1 -3.1z m47.4 -34.8 c1.2 -3.5 4.5 -4.8 7.9 -3 2.1 1.1 2.6 1 5 -1.3 2.4 -2.4 2.5 -2.9 1.4 -5.6 -1.6 -3.7 -0.2 -6.9 3.4 -7.8 2.1 -0.5 2.5 -1.2 2.5 -4.5 0 -3.3 -0.4 -4.1 -2.5 -4.9 -3.5 -1.3 -5.3 -5.5 -3.6 -8.2 1 -1.6 1 -2.3 0 -3.6 -2.7 -3.5 -4 -4.1 -6.5 -3 -3.2 1.5 -7.1 -0.3 -8 -3.7 -0.5 -2.1 -1.2 -2.5 -4.4 -2.5 -3.3 0 -3.9 0.4 -4.8 3 -1.3 3.4 -5.4 5 -8.5 3.1 -1.6 -1.1 -2.3 -0.9 -4.8 1.5 -2.7 2.6 -2.8 2.9 -1.4 5 2 3.1 0.5 7.1 -3 8 -2.2 0.5 -2.5 1.1 -2.5 4.9 0 3.8 0.3 4.4 2.5 4.9 3.5 0.9 5.1 5.1 3.1 8.1 -1.4 2.1 -1.3 2.4 1.4 5 2.4 2.3 3.1 2.5 5 1.5 3.3 -1.8 6.6 -0.5 7.8 3 1 2.7 1.6 3 5.1 3 3.4 0 4 -0.4 4.9 -2.9z m-47.7 -4 c7.9 -7.9 -0.8 -20.4 -11.2 -16.1 -4 1.7 -5.9 4.6 -5.9 9.3 0 5.5 4.3 9.7 10 9.7 3.3 0 4.8 -0.6 7.1 -2.9z"/>
  <path d="M252 448.1 c-1.4 -2.8 -1.3 -3.1 1.5 -3.1 2.6 0 2.9 0.7 1.9 3.4 -0.8 2.1 -2.1 2 -3.4 -0.3z"/>
  <path d="M259.6 442.5 c-0.8 -0.9 -1.7 -1.1 -2.1 -0.6 -0.3 0.6 -3.2 0.9 -6.5 0.8 -6.5 -0.1 -7.5 -1.3 -4.7 -6 0.8 -1.2 1.5 -4 1.6 -6.2 0.3 -5.3 3.3 -11 5.7 -11 2.4 0 6.4 7.6 6.4 12.5 0 1.9 0.7 4.4 1.5 5.4 2.8 3.7 1.2 8.1 -1.9 5.1z m-3.2 -13.1 c0.7 -1.9 -1 -4.4 -3.1 -4.4 -1.7 0 -2.7 2.4 -1.9 4.5 0.7 2 4.2 1.9 5 -0.1z"/>
  <path d="M161 509.3 c-16.8 -1.6 -34.7 -3.9 -46 -5.9 -7.4 -1.3 -13.8 -2.4 -14.2 -2.4 -0.5 0 -0.8 -4.1 -0.8 -9.1 l0 -9.1 3.3 0.6 c18.9 3.8 44.6 7.1 45.8 5.9 0.4 -0.4 1 -4.3 1.4 -8.5 0.8 -8.8 1.4 -8.1 -9.5 -9.2 -3 -0.3 -13 -1.8 -22.2 -3.3 -15.7 -2.5 -16.7 -2.8 -16.3 -4.7 0.3 -1.2 2 -11.1 3.9 -22.1 3.2 -18 13.1 -65.3 13.9 -66.2 0.3 -0.3 27 2.5 29 3 0.4 0.1 -1.1 3.3 -3.3 7.1 -2.2 3.7 -4 7.1 -4 7.5 0.1 0.3 4.2 2.5 9.3 4.9 5.1 2.3 15 6.9 22 10.2 l12.9 6 -4.6 5.1 c-2.5 2.8 -5 6.7 -5.6 8.7 -0.6 2.2 -1 19.4 -1 43 l0 39.2 -5.2 -0.2 c-2.9 0 -6.9 -0.3 -8.8 -0.5z"/>
  <path d="M94.3 493.5 c0 -3.8 0.2 -5.3 0.4 -3.2 0.2 2 0.2 5.2 0 7 -0.2 1.7 -0.4 0.1 -0.4 -3.8z"/>
  <path d="M61.3 397.5 c0 -2.2 0.2 -3 0.4 -1.7 0.2 1.2 0.2 3 0 4 -0.3 0.9 -0.5 -0.1 -0.4 -2.3z"/>
  <path d="M163.6 356.9 c-62.1 -4 -93 -19.6 -105.2 -53.5 l-2.4 -6.5 0 -54.5 0 -54.5 3.1 -7.9 c3.3 -8.6 10.9 -20.8 15.7 -25.4 l3.1 -2.8 1 3.8 c0.5 2.2 1.9 7.5 3 11.9 1.1 4.4 3.4 12.5 5.1 17.9 2.7 8.7 2.8 10.1 1.6 11.5 -2.4 2.6 -7.4 14.1 -9 20.6 -4.7 18.5 -4.6 45.9 0 65.5 5.2 21.5 20.1 36.2 42.7 41.9 37.7 9.7 123.2 9.4 157.7 -0.6 20.6 -5.9 34 -18.6 39.4 -37.4 5.2 -18 5.9 -49 1.5 -68.4 -1.3 -5.7 -5.8 -16.2 -8.8 -20.3 l-1.9 -2.8 4.2 -14.4 c2.4 -8 5.1 -18 6 -22.2 1 -4.3 1.9 -7.8 2.1 -7.8 1.5 0 12.5 16.2 16.3 23.9 l4.7 9.6 0.3 56.8 0.2 56.7 -2.6 6.8 c-10.9 27.6 -35.2 43.2 -76.4 49.2 -26.4 3.8 -68.4 5 -101.4 2.9z"/>
  <path d="M91.2 179.8 c-1.7 -5.7 -4.4 -15.4 -5.9 -21.7 l-2.7 -11.4 3.5 -2.8 c1.9 -1.5 7 -4.8 11.3 -7.3 l7.9 -4.5 4.2 3.4 c12.6 10.3 34.3 14.8 79 16.2 31.2 0.9 66.5 -1.8 82.5 -6.4 6.9 -1.9 18.1 -7.7 21 -10.8 l2.3 -2.4 5.1 2.6 c7 3.5 16.6 10.1 17.3 11.9 0.8 2.2 -9.3 41.1 -11.2 43.3 -0.2 0.1 -1.9 -0.8 -3.7 -2.2 -14.7 -11 -45.5 -15.8 -101.8 -15.8 -55.4 0 -87.3 4.9 -101.7 15.7 -1.7 1.3 -3.4 2.4 -3.6 2.4 -0.2 0 -1.8 -4.6 -3.5 -10.2z"/>
  <path d="M102.2 118 c0 -1.9 0.2 -2.7 0.5 -1.7 0.2 0.9 0.2 2.5 0 3.5 -0.3 0.9 -0.5 0.1 -0.5 -1.8z"/>
  <path d="M95.5 97.9 c-8.3 -5.8 -11.9 -10.3 -13.5 -17 -3.1 -12.6 4.5 -23.5 26.5 -38.1 24.9 -16.5 55.9 -27.3 84.5 -29.3 36.5 -2.5 86.1 15.4 114 41.2 16.8 15.5 15.9 31.4 -2.4 43.3 -6.8 4.5 -8.2 4.8 -8.9 2.1 -1.6 -6.1 -41.4 -21.3 -63.8 -24.3 -4.9 -0.7 -8.9 -1.7 -8.9 -2.3 0 -2.1 3.1 -5.4 5.3 -5.7 1.9 -0.3 2.2 -1 2.5 -5.1 0.3 -4.5 0.2 -4.8 -2.8 -5.8 -1.7 -0.6 -3.7 -2.4 -4.6 -4.1 -1.4 -2.7 -1.4 -3.2 0.1 -5.4 1.9 -2.9 1.4 -5.2 -2 -8.4 -2.4 -2.2 -3.4 -2.2 -6.7 0.2 -2.7 2 -8.3 -1.2 -9.1 -5.1 -0.6 -3 -0.9 -3.1 -5.6 -3.1 -4.7 0 -5 0.1 -5.6 3.1 -0.5 2.1 -1.7 3.5 -4.1 4.7 -3.2 1.5 -3.7 1.5 -6.1 0 -2.4 -1.4 -2.9 -1.5 -5 -0.1 -3.9 2.6 -4.6 4.9 -2.7 8.2 2.4 4 0.6 8.5 -3.9 9.8 -3 0.8 -3.2 1.1 -3.2 5.8 0 4.5 0.2 4.9 3 5.8 3.3 1.1 4.5 2.3 4.5 5 0 1.2 -0.8 1.7 -3.1 1.7 -5.5 0 -23.1 4 -35.4 8.1 -14.7 4.9 -32.6 13.6 -34.1 16.7 -0.6 1.2 -1.3 2.4 -1.5 2.6 -0.2 0.2 -3.5 -1.8 -7.4 -4.5z"/>
  <path d="M198.1 80.6 c-1.5 -2.8 -0.8 -4.6 1.9 -4.6 2.6 0 3.2 1.4 1.9 4.4 -1.5 3.2 -2.2 3.3 -3.8 0.2z"/>
  <path d="M189.3 71.4 c0.3 -2 1.3 -4.4 2.2 -5.4 0.9 -1 1.5 -3.5 1.5 -6.5 0 -5 2.8 -12.3 5.7 -14.6 3.4 -2.9 9.2 8.1 9.3 17.9 0 1.5 0.7 3.6 1.5 4.6 1.6 2.1 2.1 7.6 0.7 7.6 -0.5 0 -1.7 -0.6 -2.7 -1.4 -1.6 -1.1 -2.3 -1.1 -4.7 0.3 -2.6 1.5 -3 1.5 -5.7 -0.1 -2.6 -1.4 -3.2 -1.4 -4.2 -0.2 -0.6 0.8 -1.8 1.4 -2.7 1.4 -1.1 0 -1.3 -0.8 -0.9 -3.6z m13.2 -15.4 c0 -3 -3.5 -4 -5.5 -1.5 -1 1.2 -1 1.8 0 3 2 2.5 5.5 1.5 5.5 -1.5z"/>
 </g>
</svg>